<svg id="calculator" xmlns="http://www.w3.org/2000/svg" width="39.535" height="39.535" viewBox="0 0 39.535 39.535">
  <path id="Trazado_327" data-name="Trazado 327" d="M16.861,12.09H13.453V8.682a.682.682,0,1,0-1.363,0V12.09H8.682a.682.682,0,1,0,0,1.363H12.09v3.408a.682.682,0,0,0,1.363,0V13.453h3.408a.682.682,0,0,0,0-1.363Z" transform="translate(-2.547 -2.547)" fill="#6c63ff"/>
  <path id="Trazado_328" data-name="Trazado 328" d="M44.861,14h-8.18a.682.682,0,0,0,0,1.363h8.18a.682.682,0,0,0,0-1.363Z" transform="translate(-11.461 -4.457)" fill="#6c63ff"/>
  <path id="Trazado_329" data-name="Trazado 329" d="M20.449,0H0V39.535H39.535V0ZM1.363,1.363H19.086V19.086H1.363Zm0,36.809V20.449H19.086V38.172Zm36.809,0H20.449V20.449H38.172ZM20.449,19.086V1.363H38.172V19.086Z" fill="#6c63ff"/>
  <path id="Trazado_330" data-name="Trazado 330" d="M36.682,46.363h8.18a.682.682,0,0,0,0-1.363h-8.18a.682.682,0,0,0,0,1.363Z" transform="translate(-11.461 -14.326)" fill="#6c63ff"/>
  <path id="Trazado_331" data-name="Trazado 331" d="M36.682,40.363h8.18a.682.682,0,1,0,0-1.363h-8.18a.682.682,0,1,0,0,1.363Z" transform="translate(-11.461 -12.416)" fill="#6c63ff"/>
  <path id="Trazado_332" data-name="Trazado 332" d="M16.98,37.2a.681.681,0,0,0-.964,0L13.09,40.126,10.163,37.2a.682.682,0,0,0-.964.964l2.926,2.926L9.2,44.016a.682.682,0,1,0,.964.964l2.926-2.926,2.926,2.926a.682.682,0,0,0,.964-.964L14.054,41.09l2.926-2.926A.681.681,0,0,0,16.98,37.2Z" transform="translate(-2.865 -11.779)" fill="#6c63ff"/>
</svg>
