<svg xmlns="http://www.w3.org/2000/svg" xmlns:xlink="http://www.w3.org/1999/xlink" width="383.213" height="264.022" viewBox="0 0 383.213 264.022">
  <defs>
    <clipPath id="clip-path">
      <path id="Trazado_54" data-name="Trazado 54" d="M15538.525,3016.468c4.639,5.355,8.468,18.805,9.216,5.48s-13.574-11.956-7.846-17.062-9.091-17.062-10.71-4.359S15533.887,3011.112,15538.525,3016.468Z" transform="translate(-13782.89 5292.607) rotate(-30)" fill="#20367e"/>
    </clipPath>
  </defs>
  <g id="ModalCompany" transform="translate(-967.787 -102.184)">
    <path id="Trazado_51" data-name="Trazado 51" d="M15467.9,3169.784c-11.1-2.774-226.116-11.1-56.876,24.507s.925,35.605,63.35,43,102.653,4.624,139.184-11.1,80.459-25.895,44.854-37.917,9.71-14.334,27.744-25.432,8.322-46.7-40.229-32.831S15467.9,3169.784,15467.9,3169.784Z" transform="translate(-14363 -2875)" fill="#f2f2f2"/>
    <g id="enterprise" transform="translate(1103 172)">
      <g id="Grupo_116" data-name="Grupo 116" transform="translate(2.504 40.062)">
        <path id="Trazado_13" data-name="Trazado 13" d="M344,128v62.043a7.43,7.43,0,0,1,0,11.124v3.006a12.511,12.511,0,0,1,7.512,11.462v2.5h1.057a12.5,12.5,0,0,1,22.925,0h8.569V128Z" transform="translate(-238.837 -128)" fill="#dfdeed"/>
        <path id="Trazado_14" data-name="Trazado 14" d="M45.558,195.6a7.465,7.465,0,0,1,2.5-5.562V128H8v90.14h8.569a12.5,12.5,0,0,1,22.925,0h1.057v-2.5a12.511,12.511,0,0,1,7.512-11.462v-3.006A7.465,7.465,0,0,1,45.558,195.6Z" transform="translate(-8 -128)" fill="#dfdeed"/>
      </g>
      <path id="Trazado_15" data-name="Trazado 15" d="M136,8v99.6a7.5,7.5,0,1,1,5.008,13.074,12.52,12.52,0,0,1,12.519,12.519,15.023,15.023,0,1,1,30.047,0,12.52,12.52,0,0,1,12.519-12.519A7.509,7.509,0,1,1,201.1,107.6V8Z" transform="translate(-93.434 -5.496)" fill="#92b1f9"/>
      <circle id="Elipse_5" data-name="Elipse 5" cx="10" cy="10" r="10" transform="translate(65 93)" fill="#4fdbd8"/>
      <g id="Grupo_117" data-name="Grupo 117" transform="translate(15.33 107.923)">
        <circle id="Elipse_6" data-name="Elipse 6" cx="7.5" cy="7.5" r="7.5" transform="translate(-0.33 0.077)" fill="#fed966"/>
        <ellipse id="Elipse_7" data-name="Elipse 7" cx="8" cy="7.5" rx="8" ry="7.5" transform="translate(104.67 0.077)" fill="#fed966"/>
      </g>
      <path id="Trazado_16" data-name="Trazado 16" d="M207.023,360a15.023,15.023,0,0,1,15.023,15.023v20.031H192V375.023A15.023,15.023,0,0,1,207.023,360Z" transform="translate(-131.907 -247.325)" fill="#4fdbd8"/>
      <g id="Grupo_118" data-name="Grupo 118" transform="translate(10.016 12.519)">
        <path id="Trazado_17" data-name="Trazado 17" d="M44.519,392a12.52,12.52,0,0,1,12.519,12.519v12.519H32V404.519A12.52,12.52,0,0,1,44.519,392Z" transform="translate(-32 -281.829)" fill="#5067db"/>
        <path id="Trazado_18" data-name="Trazado 18" d="M124.519,368a12.52,12.52,0,0,1,12.519,12.519v20.031H112V380.519A12.52,12.52,0,0,1,124.519,368Z" transform="translate(-86.961 -265.341)" fill="#5067db"/>
        <circle id="Elipse_8" data-name="Elipse 8" cx="7.5" cy="7.5" r="7.5" transform="translate(29.984 87.481)" fill="#fed966"/>
        <path id="Trazado_19" data-name="Trazado 19" d="M380.519,392a12.52,12.52,0,0,1,12.519,12.519v12.519H368V404.519A12.52,12.52,0,0,1,380.519,392Z" transform="translate(-262.837 -281.829)" fill="#5067db"/>
        <path id="Trazado_20" data-name="Trazado 20" d="M300.519,368a12.52,12.52,0,0,1,12.519,12.519v20.031H288V380.519A12.52,12.52,0,0,1,300.519,368Z" transform="translate(-207.876 -265.341)" fill="#5067db"/>
        <circle id="Elipse_9" data-name="Elipse 9" cx="7.5" cy="7.5" r="7.5" transform="translate(84.984 87.481)" fill="#fed966"/>
        <path id="Trazado_21" data-name="Trazado 21" d="M192,40h30.047V60.031H192Z" transform="translate(-141.922 -40)" fill="#4fdbd8"/>
      </g>
      <path id="Trazado_22" data-name="Trazado 22" d="M168,160h5.008v5.008H168Z" transform="translate(-115.418 -109.922)"/>
      <path id="Trazado_23" data-name="Trazado 23" d="M168,192h5.008v5.008H168Z" transform="translate(-115.418 -131.907)"/>
      <path id="Trazado_24" data-name="Trazado 24" d="M168,224h5.008v5.008H168Z" transform="translate(-115.418 -153.891)"/>
      <path id="Trazado_25" data-name="Trazado 25" d="M168,256h5.008v5.008H168Z" transform="translate(-115.418 -175.876)"/>
      <path id="Trazado_26" data-name="Trazado 26" d="M200,160h5.008v5.008H200Z" transform="translate(-137.403 -109.922)"/>
      <path id="Trazado_27" data-name="Trazado 27" d="M200,192h5.008v5.008H200Z" transform="translate(-137.403 -131.907)"/>
      <path id="Trazado_28" data-name="Trazado 28" d="M200,224h5.008v5.008H200Z" transform="translate(-137.403 -153.891)"/>
      <path id="Trazado_29" data-name="Trazado 29" d="M200,256h5.008v5.008H200Z" transform="translate(-137.403 -175.876)"/>
      <path id="Trazado_30" data-name="Trazado 30" d="M232,160h5.008v5.008H232Z" transform="translate(-159.387 -109.922)"/>
      <path id="Trazado_31" data-name="Trazado 31" d="M232,192h5.008v5.008H232Z" transform="translate(-159.387 -131.907)"/>
      <path id="Trazado_32" data-name="Trazado 32" d="M232,224h5.008v5.008H232Z" transform="translate(-159.387 -153.891)"/>
      <path id="Trazado_33" data-name="Trazado 33" d="M232,256h5.008v5.008H232Z" transform="translate(-159.387 -175.876)"/>
      <path id="Trazado_34" data-name="Trazado 34" d="M264,160h5.008v5.008H264Z" transform="translate(-181.372 -109.922)"/>
      <path id="Trazado_35" data-name="Trazado 35" d="M200,128h5.008v5.008H200Z" transform="translate(-137.403 -87.938)"/>
      <path id="Trazado_36" data-name="Trazado 36" d="M232,128h5.008v5.008H232Z" transform="translate(-159.387 -87.938)"/>
      <path id="Trazado_37" data-name="Trazado 37" d="M264,128h5.008v5.008H264Z" transform="translate(-181.372 -87.938)"/>
      <path id="Trazado_38" data-name="Trazado 38" d="M264,192h5.008v5.008H264Z" transform="translate(-181.372 -131.907)"/>
      <path id="Trazado_39" data-name="Trazado 39" d="M264,224h5.008v5.008H264Z" transform="translate(-181.372 -153.891)"/>
      <path id="Trazado_40" data-name="Trazado 40" d="M264,256h5.008v5.008H264Z" transform="translate(-181.372 -175.876)"/>
      <path id="Trazado_41" data-name="Trazado 41" d="M296,160h5.008v5.008H296Z" transform="translate(-203.356 -109.922)"/>
      <path id="Trazado_42" data-name="Trazado 42" d="M296,192h5.008v5.008H296Z" transform="translate(-203.356 -131.907)"/>
      <path id="Trazado_43" data-name="Trazado 43" d="M296,224h5.008v5.008H296Z" transform="translate(-203.356 -153.891)"/>
      <path id="Trazado_44" data-name="Trazado 44" d="M296,256h5.008v5.008H296Z" transform="translate(-203.356 -175.876)"/>
      <path id="Trazado_45" data-name="Trazado 45" d="M147.729,37.558H110.171V2.5a2.5,2.5,0,0,0-2.5-2.5h-65.1a2.5,2.5,0,0,0-2.5,2.5V37.558H2.5a2.5,2.5,0,0,0-2.5,2.5V130.2a2.5,2.5,0,0,0,2.5,2.5H7.738a15.026,15.026,0,0,0-.226,2.5v12.519a2.5,2.5,0,0,0,2.5,2.5h130.2a2.5,2.5,0,0,0,2.5-2.5V135.21a15,15,0,0,0-.226-2.5h5.234a2.5,2.5,0,0,0,2.5-2.5V40.062a2.5,2.5,0,0,0-2.5-2.5Zm-40.062,70.109a5.008,5.008,0,1,1-5.008-5.008A5.008,5.008,0,0,1,107.667,107.667Zm-60.093-5.008a5.008,5.008,0,1,1-5.008,5.008A5.008,5.008,0,0,1,47.574,102.659ZM32.551,145.225H12.519V135.21a10.016,10.016,0,1,1,20.031,0ZM17.527,115.179a5.008,5.008,0,1,1,5.008,5.008A5.008,5.008,0,0,1,17.527,115.179Zm15.4,9.21a15.094,15.094,0,0,0-3.15-2.331,10.016,10.016,0,1,0-14.49,0A15.121,15.121,0,0,0,9.544,127.7H5.008V42.566H40.062v58.546a9.879,9.879,0,0,0,.267,13.433A15.066,15.066,0,0,0,32.93,124.388Zm24.66,20.837H37.558V127.7a10.016,10.016,0,1,1,20.031,0Zm30.047,0H62.6V127.7a12.519,12.519,0,1,1,25.039,0ZM67.6,102.659a7.512,7.512,0,1,1,7.512,7.512A7.512,7.512,0,0,1,67.6,102.659Zm22.761,16.43a17.637,17.637,0,0,0-7.184-6.936,12.52,12.52,0,1,0-16.131,0,17.635,17.635,0,0,0-7.184,6.936,15.123,15.123,0,0,0-5.048-4.544A9.944,9.944,0,0,0,45.07,98.007v-93h60.093v93a9.972,9.972,0,0,0-9.749,16.538,15.123,15.123,0,0,0-5.048,4.544Zm22.309,16.12v10.016H92.644V127.7a10.016,10.016,0,1,1,20.031,0Zm25.039,10.016H117.683V135.21a10.016,10.016,0,1,1,20.031,0ZM122.69,115.179a5.008,5.008,0,1,1,5.008,5.008A5.008,5.008,0,0,1,122.69,115.179ZM145.225,127.7h-4.536a15.118,15.118,0,0,0-5.746-5.641,10.016,10.016,0,1,0-14.49,0,15.086,15.086,0,0,0-3.15,2.331,15.065,15.065,0,0,0-7.4-9.843,9.879,9.879,0,0,0,.267-13.433V42.566h35.054Z" transform="translate(0 0)"/>
      <path id="Trazado_46" data-name="Trazado 46" d="M376,184h5.008v40.062H376Z" transform="translate(-258.317 -126.411)"/>
      <path id="Trazado_47" data-name="Trazado 47" d="M424,184h5.008v40.062H424Z" transform="translate(-291.294 -126.411)"/>
      <path id="Trazado_48" data-name="Trazado 48" d="M40,184h5.008v40.062H40Z" transform="translate(-27.481 -126.411)"/>
      <path id="Trazado_49" data-name="Trazado 49" d="M88,184h5.008v40.062H88Z" transform="translate(-60.457 -126.411)"/>
      <path id="Trazado_50" data-name="Trazado 50" d="M186.5,57.039h30.047a2.5,2.5,0,0,0,2.5-2.5V34.5a2.5,2.5,0,0,0-2.5-2.5H186.5a2.5,2.5,0,0,0-2.5,2.5V54.535a2.5,2.5,0,0,0,2.5,2.5Zm2.5-20.031h25.039V52.031H189.008Z" transform="translate(-126.411 -21.984)"/>
    </g>
    <path id="Polígono_8" data-name="Polígono 8" d="M13.258,1.242a3,3,0,0,1,3.483,0L28.2,9.41A3,3,0,0,1,29.3,12.8L24.952,25.943A3,3,0,0,1,22.1,28H7.9a3,3,0,0,1-2.848-2.057L.7,12.8A3,3,0,0,1,1.8,9.41Z" transform="translate(1019.291 160.561) rotate(-45)" fill="#92b1f9"/>
    <path id="Polígono_10" data-name="Polígono 10" d="M13.258,1.242a3,3,0,0,1,3.483,0L28.2,9.41A3,3,0,0,1,29.3,12.8L24.952,25.943A3,3,0,0,1,22.1,28H7.9a3,3,0,0,1-2.848-2.057L.7,12.8A3,3,0,0,1,1.8,9.41Z" transform="translate(1019.291 160.561) rotate(-45)" fill="#92b1f9"/>
    <g id="Polígono_9" data-name="Polígono 9" transform="translate(1019.291 149.561) rotate(-45)" fill="none">
      <path d="M31.768,1.224a3,3,0,0,1,3.463,0L65.18,22.4a3,3,0,0,1,1.114,3.4L54.889,59.95A3,3,0,0,1,52.043,62H14.957a3,3,0,0,1-2.846-2.05L.706,25.8A3,3,0,0,1,1.82,22.4Z" stroke="none"/>
      <path d="M 33.4999885559082 1.673912048339844 C 33.08422088623047 1.673912048339844 32.68500900268555 1.800769805908203 32.34550094604492 2.040782928466797 L 2.3968505859375 23.21215057373047 C 1.671279907226563 23.72507095336914 1.372879028320313 24.63595199584961 1.654327392578125 25.4787712097168 L 13.05987930297852 59.63348007202148 C 13.33282852172852 60.45083999633789 14.09518051147461 61 14.95690155029297 61 L 52.0430908203125 61 C 52.90480804443359 61 53.66716766357422 60.45083999633789 53.94012069702148 59.63349151611328 L 65.34568023681641 25.4787712097168 C 65.62712097167969 24.63595199584961 65.32872772216797 23.72507095336914 64.6031494140625 23.21215057373047 L 34.65447998046875 2.040771484375 C 34.31497955322266 1.800769805908203 33.915771484375 1.673912048339844 33.4999885559082 1.673912048339844 M 33.49999618530273 0.6739120483398438 C 34.10638809204102 0.6739120483398438 34.7127799987793 0.8573455810546875 35.23174285888672 1.224212646484375 L 65.18039703369141 22.39558029174805 C 66.26075744628906 23.1593017578125 66.71324920654297 24.54059219360352 66.294189453125 25.79550933837891 L 54.88862991333008 59.95022964477539 C 54.47980880737305 61.17446136474609 53.33378982543945 62 52.0430908203125 62 L 14.95690155029297 62 C 13.66621017456055 62 12.52019119262695 61.17446136474609 12.11137008666992 59.95022964477539 L 0.7058181762695313 25.79550933837891 C 0.2867507934570313 24.54059219360352 0.7392501831054688 23.1593017578125 1.819602966308594 22.39558029174805 L 31.76824951171875 1.224212646484375 C 32.28720855712891 0.8573455810546875 32.89360427856445 0.6739120483398438 33.49999618530273 0.6739120483398438 Z" stroke="none" fill="#92b1f9"/>
    </g>
    <g id="Polígono_11" data-name="Polígono 11" transform="translate(1025.383 164.469) rotate(-45)" fill="#92b1f9" opacity="0.17">
      <path d="M 30.19992065429688 36.5 L 9.800080299377441 36.5 C 8.72305965423584 36.5 7.77016019821167 35.81366729736328 7.428909778594971 34.79214859008789 L 1.180539965629578 16.08853912353516 C 0.8284900188446045 15.03471851348877 1.201609969139099 13.89588832855225 2.108989953994751 13.25469875335693 L 18.55726051330566 1.631728529930115 C 18.98155975341797 1.33189857006073 19.48044967651367 1.173418521881104 20 1.173418521881104 C 20.51954078674316 1.173418521881104 21.01843070983887 1.33189857006073 21.44272994995117 1.631728529930115 L 37.89102172851563 13.25469875335693 C 38.79840087890625 13.89588832855225 39.1715087890625 15.03471851348877 38.81946182250977 16.08852767944336 L 32.57109069824219 34.79214859008789 C 32.22983932495117 35.81366729736328 31.27693939208984 36.5 30.19992065429688 36.5 Z" stroke="none"/>
      <path d="M 19.99999046325684 1.673419952392578 C 19.5843505859375 1.673419952392578 19.18523979187012 1.800197601318359 18.84580039978027 2.040069580078125 L 2.397529602050781 13.66303825378418 C 1.671630859375 14.17598915100098 1.373138427734375 15.0870475769043 1.654769897460938 15.93009757995605 L 7.903141021728516 34.63372039794922 C 8.176149368286133 35.4509391784668 8.938470840454102 36 9.800079345703125 36 L 30.19990921020508 36 C 31.06153106689453 36 31.82384872436523 35.4509391784668 32.09685897827148 34.63372039794922 L 38.34523010253906 15.93009757995605 C 38.62686157226563 15.0870475769043 38.328369140625 14.17598915100098 37.60247039794922 13.66303825378418 L 21.1541805267334 2.040058135986328 C 20.81475067138672 1.800197601318359 20.41563034057617 1.673419952392578 19.99999046325684 1.673419952392578 M 19.9999942779541 0.6734199523925781 C 20.6062068939209 0.6734199523925781 21.2124195098877 0.8567428588867188 21.73127937316895 1.223388671875 L 38.17956161499023 12.84635925292969 C 39.26034164428711 13.61007881164551 39.71302032470703 14.99176788330078 39.293701171875 16.24695777893066 L 33.04533004760742 34.95057678222656 C 32.63640975952148 36.17463684082031 31.49047088623047 37 30.19990921020508 37 L 9.800079345703125 37 C 8.509529113769531 37 7.363590240478516 36.17463684082031 6.954669952392578 34.95057678222656 L 0.706298828125 16.24695777893066 C 0.2869796752929688 14.99176788330078 0.7396507263183594 13.61007881164551 1.820438385009766 12.84635925292969 L 18.26870918273926 1.223388671875 C 18.78757095336914 0.8567428588867188 19.3937816619873 0.6734199523925781 19.9999942779541 0.6734199523925781 Z" stroke="none" fill="#92b1f9"/>
    </g>
    <path id="Trazado_52" data-name="Trazado 52" d="M15563.918,3029.989c22.162-.342,46.514-44.326,38.032-25.173s-19.426,41.316-50.892,29.824-66.488-10.671-64.847-20.521S15541.756,3030.331,15563.918,3029.989Z" transform="translate(-14354 -2876)" fill="#ecf1fd"/>
    <path id="Trazado_53" data-name="Trazado 53" d="M15538.525,3016.468c4.639,5.355,8.468,18.805,9.216,5.48s-13.574-11.956-7.846-17.062-9.091-17.062-10.71-4.359S15533.887,3011.112,15538.525,3016.468Z" transform="translate(-13785.89 5294.607) rotate(-30)" fill="#5067db"/>
    <g id="Enmascarar_grupo_1" data-name="Enmascarar grupo 1" clip-path="url(#clip-path)">
      <path id="Trazado_55" data-name="Trazado 55" d="M15538.525,3016.468c4.639,5.355,8.468,18.805,9.216,5.48s-13.574-11.956-7.846-17.062-9.091-17.062-10.71-4.359S15533.887,3011.112,15538.525,3016.468Z" transform="translate(-13785.89 5294.607) rotate(-30)" fill="#20367e"/>
    </g>
    <rect id="Rectángulo_133" data-name="Rectángulo 133" width="3" height="73" rx="1.5" transform="translate(1290 148)" fill="#4fdbd8"/>
    <rect id="Rectángulo_134" data-name="Rectángulo 134" width="3" height="21" rx="1.5" transform="translate(1348 278)" fill="#4fdbd8" opacity="0.56"/>
    <rect id="Rectángulo_135" data-name="Rectángulo 135" width="7" height="43" rx="3.5" transform="translate(1274 218)" fill="#248280" opacity="0.16"/>
    <path id="Polígono_12" data-name="Polígono 12" d="M14.264,3.039a2,2,0,0,1,3.473,0L30.29,25.008A2,2,0,0,1,28.554,28H3.446A2,2,0,0,1,1.71,25.008Z" transform="translate(967.787 331.414) rotate(-45)" fill="#4fdbd8"/>
    <path id="Polígono_13" data-name="Polígono 13" d="M14.264,3.039a2,2,0,0,1,3.473,0L30.29,25.008A2,2,0,0,1,28.554,28H3.446A2,2,0,0,1,1.71,25.008Z" transform="matrix(0.966, -0.259, 0.259, 0.966, 980.922, 318.618)" fill="#4fdbd8" opacity="0.53"/>
    <g id="Polígono_14" data-name="Polígono 14" transform="translate(1000.144 282.875) rotate(30)" fill="none" opacity="0.53">
      <path d="M17.765,3.025a2,2,0,0,1,3.47,0L37.282,31a2,2,0,0,1-1.735,3H3.453a2,2,0,0,1-1.735-3Z" stroke="none"/>
      <path d="M 19.5 3.019992828369141 C 19.32583045959473 3.019992828369141 18.89265060424805 3.068954467773438 18.63254928588867 3.522483825683594 L 2.585189819335938 31.50248336791992 C 2.326370239257813 31.95376396179199 2.500469207763672 32.35127258300781 2.58734130859375 32.50123596191406 C 2.674209594726563 32.65119552612305 2.932418823242188 32.99999618530273 3.452648162841797 32.99999618530273 L 35.54734802246094 32.99999618530273 C 36.06758117675781 32.99999618530273 36.32579040527344 32.65119552612305 36.41265869140625 32.50123596191406 C 36.49953079223633 32.35127258300781 36.67362976074219 31.95376396179199 36.41481018066406 31.50248336791992 L 20.36745071411133 3.522483825683594 C 20.10733985900879 3.068954467773438 19.67416954040527 3.019992828369141 19.5 3.019992828369141 M 19.5 2.019996643066406 C 20.17532730102539 2.019996643066406 20.85065460205078 2.354988098144531 21.23490905761719 3.024974822998047 L 37.28226852416992 31.00497436523438 C 38.04697036743164 32.33830261230469 37.08440017700195 33.99999618530273 35.54734802246094 33.99999618530273 L 3.452648162841797 33.99999618530273 C 1.915599822998047 33.99999618530273 0.9530296325683594 32.33830261230469 1.717731475830078 31.00497436523438 L 17.76509094238281 3.024974822998047 C 18.14934539794922 2.354988098144531 18.82467269897461 2.019996643066406 19.5 2.019996643066406 Z" stroke="none" fill="#4fdbd8"/>
    </g>
    <circle id="Elipse_10" data-name="Elipse 10" cx="7.5" cy="7.5" r="7.5" transform="translate(1025 261)" fill="#ecf1fd"/>
    <circle id="Elipse_11" data-name="Elipse 11" cx="3" cy="3" r="3" transform="translate(1044 251)" fill="#92b1f9"/>
    <path id="Trazado_56" data-name="Trazado 56" d="M15406.606,3106.245c-8.049-6.638-25.951,6.152-13.97,17s21.37,18.133,11.333,17.647,18.618,17.161,13.762,1.133-25.742-16.352-14.895-21.857S15414.655,3112.883,15406.606,3106.245Z" transform="translate(-14099 -2811)" fill="#5067db"/>
    <path id="Trazado_57" data-name="Trazado 57" d="M15394.461,3105.011c-2.613-2.154-8.422,2-4.534,5.517s6.935,5.885,3.678,5.727,6.042,5.57,4.466.368-8.354-5.307-4.834-7.093S15397.072,3107.166,15394.461,3105.011Z" transform="translate(-14320 -2873)" fill="#5067db" opacity="0.25"/>
    <path id="Trazado_58" data-name="Trazado 58" d="M15394.461,3105.011c-2.613-2.154-8.422,2-4.534,5.517s6.935,5.885,3.678,5.727,6.042,5.57,4.466.368-8.354-5.307-4.834-7.093S15397.072,3107.166,15394.461,3105.011Z" transform="translate(-14307 -2888)" fill="#5067db" opacity="0.49"/>
  </g>
</svg>
