<svg xmlns="http://www.w3.org/2000/svg" width="38.182" height="33.931" viewBox="0 0 38.182 33.931">
  <g id="walle-home" transform="translate(0 -28.499)">
    <g id="Grupo_139" data-name="Grupo 139" transform="translate(0 28.499)">
      <g id="Grupo_138" data-name="Grupo 138" transform="translate(0 0)">
        <path id="Trazado_334" data-name="Trazado 334" d="M36.5,42.668h-.559V35.024A3.546,3.546,0,0,0,32.4,31.481H17.042L6.679,28.521l-.009,0-.009,0-.019,0-.029-.006-.026,0-.03,0H6.5l-.023,0-.032,0-.021,0-.032.007-.02.005-.032.01-.018.007-.032.013-.017.008-.031.017-.016.01-.029.02-.015.011-.027.022-.014.013-.024.024-.014.016-.021.025-.014.019-.017.025-.013.022-.014.025-.012.026L6,28.859l-.009.028-.006.018,0,.009,0,.009-.64,2.559h-1.8A3.546,3.546,0,0,0,0,35.012s0,.008,0,.012V54.413a.559.559,0,0,0,1.119,0V37.6a3.529,3.529,0,0,0,2.424.963H32.4a2.426,2.426,0,0,1,2.422,2.424v3.915H28.672l-.048,0-.053.007h-.008l-.043.011-.009,0-.037.013-.014.005-.03.014-.02.009-.023.013L28.362,45l-.016.011-.028.021-.011.01-.029.026-.016.017-.022.024q-.017.021-.033.044h0l-2.983,4.474a.55.55,0,0,0-.052.1c-.005.013-.01.026-.014.039l0,.012c0,.014-.007.028-.01.042l0,.011c0,.013,0,.025-.006.038s0,.011,0,.016,0,.021,0,.031,0,.016,0,.024,0,.015,0,.023,0,.021,0,.032,0,.01,0,.015,0,.026.006.038l0,.01c0,.014.006.028.011.042l0,.012c0,.013.009.026.014.039a.557.557,0,0,0,.052.1l2.983,4.474h0a.578.578,0,0,0,.039.051l.014.015.03.03.018.016.034.027.016.012a.558.558,0,0,0,.052.031l.014.007.044.02.018.006.043.014.018,0,.046.008.017,0a.563.563,0,0,0,.059,0h6.157v3.916A2.426,2.426,0,0,1,32.4,61.312H3.543a2.426,2.426,0,0,1-2.424-2.424s0-.006,0-.009V56.65A.559.559,0,1,0,0,56.65v2.238c0,.006,0,.011,0,.017A3.546,3.546,0,0,0,3.543,62.43H32.4a3.546,3.546,0,0,0,3.542-3.542h0V54.972H36.5a1.68,1.68,0,0,0,1.678-1.678V44.345A1.68,1.68,0,0,0,36.5,42.668ZM6.928,29.755l9.869,2.82h0l6.614,1.89H5.751Zm27.9,8.655a3.528,3.528,0,0,0-2.424-.963H3.543a2.424,2.424,0,1,1,0-4.847H5.064L4.6,34.465H3.543a.559.559,0,0,0,0,1.119H31.656a.559.559,0,1,0,0-1.119H27.484L20.957,32.6H32.4a2.426,2.426,0,0,1,2.424,2.424Zm2.237,14.885h0a.56.56,0,0,1-.559.559H28.972l-2.61-3.915,2.61-3.915h7.555a1.672,1.672,0,0,0,.536-.1ZM36.5,44.9h-.559V43.786H36.5a.559.559,0,1,1,0,1.118Z" transform="translate(0 -28.499)" fill="#4fdbd8"/>
      </g>
    </g>
    <g id="Grupo_141" data-name="Grupo 141" transform="translate(28.86 47.888)">
      <g id="Grupo_140" data-name="Grupo 140">
        <path id="Trazado_335" data-name="Trazado 335" d="M389.05,288.493a2.051,2.051,0,1,0,2.051,2.051A2.053,2.053,0,0,0,389.05,288.493Zm0,2.983a.932.932,0,1,1,.932-.932A.933.933,0,0,1,389.05,291.476Z" transform="translate(-386.999 -288.493)" fill="#4fdbd8"/>
      </g>
    </g>
  </g>
</svg>
