<svg xmlns="http://www.w3.org/2000/svg" width="40.28" height="35.796" viewBox="0 0 40.28 35.796">
  <g id="WalletIcon" transform="translate(0 -28.499)">
    <g id="Grupo_129" data-name="Grupo 129" transform="translate(0 28.499)">
      <g id="Grupo_128" data-name="Grupo 128" transform="translate(0 0)">
        <path id="Trazado_313" data-name="Trazado 313" d="M38.51,43.447h-.59V35.382a3.741,3.741,0,0,0-3.737-3.737h-16.2L7.046,28.522l-.01,0-.01,0-.02,0-.03-.006-.027,0-.032,0H6.859l-.024,0-.034,0-.023,0-.034.007-.021.006-.034.011-.019.007-.034.014-.017.009-.033.018-.016.01-.031.021-.016.012-.028.023-.015.014-.025.025L6.44,28.7l-.022.026-.015.02-.018.027-.014.024-.014.027-.012.027-.011.027c0,.01-.007.019-.01.029l-.006.019,0,.01,0,.01-.675,2.7h-1.9A3.741,3.741,0,0,0,0,35.37s0,.008,0,.012V55.837a.59.59,0,0,0,1.18,0V38.1a3.722,3.722,0,0,0,2.557,1.016H34.185a2.56,2.56,0,0,1,2.555,2.557v4.131H30.248l-.051,0-.056.008h-.008l-.046.011-.01,0-.039.014-.015.006-.032.015-.021.01-.024.014-.026.016-.017.012-.03.022-.012.011-.03.028L29.816,46l-.023.025q-.018.022-.034.046h0l-3.147,4.72a.581.581,0,0,0-.055.1c-.006.014-.01.027-.015.041l0,.012c0,.015-.008.029-.011.044l0,.011c0,.013,0,.027-.006.04s0,.011,0,.017,0,.022,0,.033,0,.017,0,.025,0,.016,0,.024,0,.022,0,.034,0,.011,0,.016,0,.027.006.041l0,.011c0,.015.007.03.011.044l0,.012c0,.014.009.027.015.041a.588.588,0,0,0,.055.1l3.147,4.72h0a.609.609,0,0,0,.041.054l.015.016.031.032.019.017.036.028.016.012a.589.589,0,0,0,.055.033l.015.007.046.021.018.007.046.014.019,0,.049.009.018,0a.594.594,0,0,0,.062,0h6.5v4.131a2.56,2.56,0,0,1-2.557,2.557H3.738a2.56,2.56,0,0,1-2.557-2.557s0-.006,0-.009V58.2A.59.59,0,0,0,0,58.2v2.361c0,.006,0,.012,0,.018A3.741,3.741,0,0,0,3.738,64.3H34.184a3.741,3.741,0,0,0,3.737-3.736h0V56.427h.59a1.772,1.772,0,0,0,1.77-1.77V45.216A1.772,1.772,0,0,0,38.51,43.447ZM7.309,29.824,17.72,32.8h0L24.7,34.793H6.067ZM36.74,38.955a3.722,3.722,0,0,0-2.557-1.015H3.737a2.557,2.557,0,1,1,0-5.114h1.6L4.85,34.793H3.737a.59.59,0,1,0,0,1.18H33.4a.59.59,0,1,0,0-1.18h-4.4l-6.886-1.968H34.183a2.56,2.56,0,0,1,2.557,2.557Zm2.36,15.7h0a.59.59,0,0,1-.59.59H30.565l-2.753-4.13,2.753-4.13h7.97a1.763,1.763,0,0,0,.565-.1Zm-.59-8.851h-.59v-1.18h.59a.59.59,0,0,1,0,1.179Z" transform="translate(0 -28.499)" fill="#6c63ff"/>
      </g>
    </g>
    <g id="Grupo_131" data-name="Grupo 131" transform="translate(30.446 48.954)">
      <g id="Grupo_130" data-name="Grupo 130" transform="translate(0 0)">
        <path id="Trazado_314" data-name="Trazado 314" d="M389.162,288.493a2.164,2.164,0,1,0,2.163,2.164A2.166,2.166,0,0,0,389.162,288.493Zm0,3.147a.983.983,0,1,1,.983-.983A.984.984,0,0,1,389.162,291.64Z" transform="translate(-386.999 -288.493)" fill="#6c63ff"/>
      </g>
    </g>
  </g>
</svg>
