<svg id="ArtLogin" xmlns="http://www.w3.org/2000/svg" xmlns:xlink="http://www.w3.org/1999/xlink" width="394.175" height="283.052" viewBox="0 0 394.175 283.052">
  <defs>
    <linearGradient id="linear-gradient" x1="0.5" y1="1" x2="0.5" gradientUnits="objectBoundingBox">
      <stop offset="0" stop-color="gray" stop-opacity="0.251"/>
      <stop offset="0.535" stop-color="gray" stop-opacity="0.122"/>
      <stop offset="1" stop-color="gray" stop-opacity="0.102"/>
    </linearGradient>
  </defs>
  <ellipse id="Elipse_19" data-name="Elipse 19" cx="197.088" cy="23.956" rx="197.088" ry="23.956" transform="translate(0 235.14)" fill="#6c63ff" opacity="0.1"/>
  <path id="Trazado_64" data-name="Trazado 64" d="M997.486,729.428s10.279-13.08,9.448-26.057a25.206,25.206,0,0,1,3.967-15.442,42.387,42.387,0,0,1,4.83-6.064" transform="translate(-660.256 -458.59)" fill="none" stroke="#535461" stroke-miterlimit="10" stroke-width="2"/>
  <path id="Trazado_65" data-name="Trazado 65" d="M1047.46,654.565c-.725,1.816.462,8.4.462,8.4s5.391-3.955,6.115-5.772a3.541,3.541,0,1,0-6.578-2.625Z" transform="translate(-692.459 -439.472)" fill="#6c63ff"/>
  <path id="Trazado_66" data-name="Trazado 66" d="M1020.956,673.282c.379,1.919,4.952,6.8,4.952,6.8s2.375-6.25,2-8.169a3.541,3.541,0,1,0-6.948,1.372Z" transform="translate(-675.407 -450.296)" fill="#6c63ff"/>
  <path id="Trazado_67" data-name="Trazado 67" d="M1000.658,719.271c1.3,1.465,7.705,3.367,7.705,3.367s-1.1-6.594-2.4-8.059a3.541,3.541,0,1,0-5.305,4.692Z" transform="translate(-661.735 -478.997)" fill="#6c63ff"/>
  <path id="Trazado_68" data-name="Trazado 68" d="M995.462,760.459c1.029,1.663,7.025,4.621,7.025,4.621s.026-6.686-1-8.349a3.541,3.541,0,1,0-6.022,3.728Z" transform="translate(-658.602 -505.974)" fill="#6c63ff"/>
  <path id="Trazado_69" data-name="Trazado 69" d="M1038.883,696.62c-1.808.746-8.4-.365-8.4-.365s3.892-5.436,5.7-6.182a3.541,3.541,0,1,1,2.7,6.547Z" transform="translate(-681.619 -463.731)" fill="#6c63ff"/>
  <path id="Trazado_70" data-name="Trazado 70" d="M1032.34,743.2c-1.948.171-7.907-2.862-7.907-2.862s5.34-4.023,7.289-4.193a3.541,3.541,0,0,1,.618,7.055Z" transform="translate(-677.703 -493.725)" fill="#6c63ff"/>
  <path id="Trazado_71" data-name="Trazado 71" d="M1018.151,788.124c-1.891.5-8.277-1.485-8.277-1.485s4.584-4.867,6.475-5.365a3.541,3.541,0,0,1,1.8,6.849Z" transform="translate(-668.277 -522.875)" fill="#6c63ff"/>
  <path id="Trazado_72" data-name="Trazado 72" d="M1047.46,654.565c-.725,1.816.462,8.4.462,8.4s5.391-3.955,6.115-5.772a3.541,3.541,0,1,0-6.578-2.625Z" transform="translate(-692.459 -439.472)" opacity="0.25"/>
  <path id="Trazado_73" data-name="Trazado 73" d="M1020.956,673.282c.379,1.919,4.952,6.8,4.952,6.8s2.375-6.25,2-8.169a3.541,3.541,0,1,0-6.948,1.372Z" transform="translate(-675.407 -450.296)" opacity="0.25"/>
  <path id="Trazado_74" data-name="Trazado 74" d="M1000.658,719.271c1.3,1.465,7.705,3.367,7.705,3.367s-1.1-6.594-2.4-8.059a3.541,3.541,0,1,0-5.305,4.692Z" transform="translate(-661.735 -478.997)" opacity="0.25"/>
  <path id="Trazado_75" data-name="Trazado 75" d="M995.462,760.459c1.029,1.663,7.025,4.621,7.025,4.621s.026-6.686-1-8.349a3.541,3.541,0,1,0-6.022,3.728Z" transform="translate(-658.602 -505.974)" opacity="0.25"/>
  <path id="Trazado_76" data-name="Trazado 76" d="M1038.883,696.62c-1.808.746-8.4-.365-8.4-.365s3.892-5.436,5.7-6.182a3.541,3.541,0,1,1,2.7,6.547Z" transform="translate(-681.619 -463.731)" opacity="0.25"/>
  <path id="Trazado_77" data-name="Trazado 77" d="M1032.34,743.2c-1.948.171-7.907-2.862-7.907-2.862s5.34-4.023,7.289-4.193a3.541,3.541,0,0,1,.618,7.055Z" transform="translate(-677.703 -493.725)" opacity="0.25"/>
  <path id="Trazado_78" data-name="Trazado 78" d="M1018.151,788.124c-1.891.5-8.277-1.485-8.277-1.485s4.584-4.867,6.475-5.365a3.541,3.541,0,0,1,1.8,6.849Z" transform="translate(-668.277 -522.875)" opacity="0.25"/>
  <path id="Trazado_79" data-name="Trazado 79" d="M997.733,748.951s14.7-7.793,19.2-19.993a25.2,25.2,0,0,1,9.884-12.51,42.389,42.389,0,0,1,6.873-3.587" transform="translate(-660.416 -478.658)" fill="none" stroke="#535461" stroke-miterlimit="10" stroke-width="2"/>
  <path id="Trazado_80" data-name="Trazado 80" d="M1102.409,689.249c-1.4,1.367-2.979,7.863-2.979,7.863s6.531-1.431,7.93-2.8a3.541,3.541,0,0,0-4.95-5.065Z" transform="translate(-726.257 -462.718)" fill="#6c63ff"/>
  <path id="Trazado_81" data-name="Trazado 81" d="M1074.2,695.633c-.431,1.908,1.773,8.22,1.773,8.22s4.7-4.751,5.135-6.659a3.541,3.541,0,1,0-6.908-1.561Z" transform="translate(-709.885 -465.717)" fill="#6c63ff"/>
  <path id="Trazado_82" data-name="Trazado 82" d="M1036.954,729.453c.591,1.864,5.68,6.2,5.68,6.2s1.662-6.476,1.072-8.34a3.541,3.541,0,1,0-6.751,2.14Z" transform="translate(-685.701 -486.414)" fill="#6c63ff"/>
  <path id="Trazado_83" data-name="Trazado 83" d="M1015.508,765c.267,1.937,4.55,7.071,4.55,7.071s2.733-6.1,2.466-8.039a3.541,3.541,0,1,0-7.016.968Z" transform="translate(-671.903 -509.809)" fill="#6c63ff"/>
  <path id="Trazado_84" data-name="Trazado 84" d="M1079.468,726.85c-1.955-.051-7.533-3.738-7.533-3.738s5.761-3.393,7.716-3.342a3.541,3.541,0,1,1-.184,7.08Z" transform="translate(-708.457 -483.131)" fill="#6c63ff"/>
  <path id="Trazado_85" data-name="Trazado 85" d="M1056.285,767.256c-1.85-.633-6.069-5.82-6.069-5.82s6.513-1.513,8.363-.88a3.541,3.541,0,0,1-2.294,6.7Z" transform="translate(-694.395 -509.437)" fill="#6c63ff"/>
  <path id="Trazado_86" data-name="Trazado 86" d="M1024.149,802.378c-1.931-.312-6.965-4.711-6.965-4.711s6.163-2.592,8.094-2.281a3.541,3.541,0,0,1-1.128,6.992Z" transform="translate(-673.009 -532.07)" fill="#6c63ff"/>
  <path id="Trazado_87" data-name="Trazado 87" d="M354.029,82.112c-19.475-.676-38.024-6.963-55.736-13.842s-35.256-14.5-54.265-18.144C231.8,47.782,217.821,47.45,207.97,54c-9.48,6.308-12.543,17.2-14.19,27.3-1.239,7.6-1.967,15.6,1.427,22.718,2.357,4.941,6.542,9.094,9.436,13.826,10.07,16.467,2.953,36.772-7.961,52.85-5.119,7.542-11.057,14.737-15.007,22.766s-5.778,17.228-2.322,25.418c3.426,8.118,11.589,14.215,20.432,18.5,17.961,8.71,39.126,11.2,59.764,12.615,45.686,3.125,91.616,1.772,137.423.417,16.952-.5,33.979-1.01,50.656-3.631,9.261-1.456,18.822-3.766,25.545-9.344,8.535-7.081,10.651-19.07,4.932-27.949-9.593-14.892-36.118-18.591-42.823-34.573-3.691-8.8.1-18.6,5.463-26.755,11.506-17.5,30.792-32.857,31.808-52.863.7-13.74-8.573-27.5-22.909-34-15.026-6.814-35.862-5.957-46.948,5.323C391.284,78.24,371.225,82.709,354.029,82.112Z" transform="translate(-129.392 -48.59)" fill="#6c63ff" opacity="0.1"/>
  <ellipse id="Elipse_20" data-name="Elipse 20" cx="13.241" cy="14.055" rx="13.241" ry="14.055" transform="translate(178.051 220.24)" fill="#fbd56f"/>
  <ellipse id="Elipse_21" data-name="Elipse 21" cx="13.241" cy="14.055" rx="13.241" ry="14.055" transform="translate(178.051 220.24)" opacity="0.1"/>
  <ellipse id="Elipse_22" data-name="Elipse 22" cx="13.241" cy="13.742" rx="13.241" ry="13.742" transform="translate(180.336 220.866)" fill="#fbd56f"/>
  <path id="Trazado_88" data-name="Trazado 88" d="M601.854,747.349l-1.377-.767a16.683,16.683,0,0,0-.434,4.6.955.955,0,0,0,.717.824c3.168.787,18.27,4.139,28.655-.583a.953.953,0,0,0,.552-.766,14.268,14.268,0,0,0-.5-4.081C629.076,745.563,601.854,747.349,601.854,747.349Z" transform="translate(-402.913 -500.286)" fill="#fbd56f"/>
  <path id="Trazado_89" data-name="Trazado 89" d="M601.854,747.349l-1.377-.767a16.683,16.683,0,0,0-.434,4.6.955.955,0,0,0,.717.824c3.168.787,18.27,4.139,28.655-.583a.953.953,0,0,0,.552-.766,14.268,14.268,0,0,0-.5-4.081C629.076,745.563,601.854,747.349,601.854,747.349Z" transform="translate(-402.913 -500.286)" opacity="0.1"/>
  <ellipse id="Elipse_23" data-name="Elipse 23" cx="14.494" cy="3.267" rx="14.494" ry="3.267" transform="translate(197.563 243.028)" fill="#fbd56f"/>
  <path id="Trazado_90" data-name="Trazado 90" d="M617.559,733.677l-1.377-.767a16.688,16.688,0,0,0-.434,4.6.954.954,0,0,0,.717.824c3.168.787,18.27,4.139,28.655-.583a.953.953,0,0,0,.552-.766,14.27,14.27,0,0,0-.5-4.08C644.781,731.892,617.559,733.677,617.559,733.677Z" transform="translate(-413.081 -491.435)" fill="#fbd56f"/>
  <path id="Trazado_91" data-name="Trazado 91" d="M617.559,733.677l-1.377-.767a16.688,16.688,0,0,0-.434,4.6.954.954,0,0,0,.717.824c3.168.787,18.27,4.139,28.655-.583a.953.953,0,0,0,.552-.766,14.27,14.27,0,0,0-.5-4.08C644.781,731.892,617.559,733.677,617.559,733.677Z" transform="translate(-413.081 -491.435)" opacity="0.1"/>
  <ellipse id="Elipse_24" data-name="Elipse 24" cx="14.494" cy="3.267" rx="14.494" ry="3.267" transform="translate(203.101 238.208)" fill="#fbd56f"/>
  <path id="Trazado_92" data-name="Trazado 92" d="M631.444,715.709l-1.377-.767a16.686,16.686,0,0,0-.434,4.6.955.955,0,0,0,.717.825c3.168.787,18.27,4.139,28.655-.583a.953.953,0,0,0,.552-.766,14.266,14.266,0,0,0-.5-4.08C658.666,713.923,631.444,715.709,631.444,715.709Z" transform="translate(-422.07 -479.802)" fill="#fbd56f"/>
  <path id="Trazado_93" data-name="Trazado 93" d="M631.444,715.709l-1.377-.767a16.686,16.686,0,0,0-.434,4.6.955.955,0,0,0,.717.825c3.168.787,18.27,4.139,28.655-.583a.953.953,0,0,0,.552-.766,14.266,14.266,0,0,0-.5-4.08C658.666,713.923,631.444,715.709,631.444,715.709Z" transform="translate(-422.07 -479.802)" opacity="0.1"/>
  <ellipse id="Elipse_25" data-name="Elipse 25" cx="14.494" cy="3.267" rx="14.494" ry="3.267" transform="translate(207.996 231.873)" fill="#fbd56f"/>
  <path id="Trazado_94" data-name="Trazado 94" d="M616.068,697l-1.378-.767a16.686,16.686,0,0,0-.434,4.6.955.955,0,0,0,.717.824c3.169.787,18.27,4.139,28.655-.583a.953.953,0,0,0,.552-.766,14.268,14.268,0,0,0-.5-4.081C643.29,695.217,616.068,697,616.068,697Z" transform="translate(-412.115 -467.691)" fill="#fbd56f"/>
  <path id="Trazado_95" data-name="Trazado 95" d="M616.068,697l-1.378-.767a16.686,16.686,0,0,0-.434,4.6.955.955,0,0,0,.717.824c3.169.787,18.27,4.139,28.655-.583a.953.953,0,0,0,.552-.766,14.268,14.268,0,0,0-.5-4.081C643.29,695.217,616.068,697,616.068,697Z" transform="translate(-412.115 -467.691)" opacity="0.1"/>
  <ellipse id="Elipse_26" data-name="Elipse 26" cx="14.494" cy="3.267" rx="14.494" ry="3.267" transform="translate(202.575 225.278)" fill="#fbd56f"/>
  <path id="Trazado_96" data-name="Trazado 96" d="M650.659,681.992l-1.377-.767a16.688,16.688,0,0,0-.434,4.6.954.954,0,0,0,.717.824c3.169.787,18.27,4.139,28.655-.583a.953.953,0,0,0,.552-.766,14.27,14.27,0,0,0-.5-4.08C677.881,680.206,650.659,681.992,650.659,681.992Z" transform="translate(-434.511 -457.973)" fill="#fbd56f"/>
  <path id="Trazado_97" data-name="Trazado 97" d="M650.659,681.992l-1.377-.767a16.688,16.688,0,0,0-.434,4.6.954.954,0,0,0,.717.824c3.169.787,18.27,4.139,28.655-.583a.953.953,0,0,0,.552-.766,14.27,14.27,0,0,0-.5-4.08C677.881,680.206,650.659,681.992,650.659,681.992Z" transform="translate(-434.511 -457.973)" opacity="0.1"/>
  <ellipse id="Elipse_27" data-name="Elipse 27" cx="14.494" cy="3.267" rx="14.494" ry="3.267" transform="translate(214.771 219.985)" fill="#fbd56f"/>
  <path id="Trazado_98" data-name="Trazado 98" d="M627.287,671.9l-1.377-.767a16.683,16.683,0,0,0-.434,4.6.954.954,0,0,0,.717.824c3.169.787,18.27,4.139,28.655-.583a.953.953,0,0,0,.552-.766,14.268,14.268,0,0,0-.5-4.08C654.509,670.117,627.287,671.9,627.287,671.9Z" transform="translate(-419.379 -451.44)" fill="#fbd56f"/>
  <path id="Trazado_99" data-name="Trazado 99" d="M627.287,671.9l-1.377-.767a16.683,16.683,0,0,0-.434,4.6.954.954,0,0,0,.717.824c3.169.787,18.27,4.139,28.655-.583a.953.953,0,0,0,.552-.766,14.268,14.268,0,0,0-.5-4.08C654.509,670.117,627.287,671.9,627.287,671.9Z" transform="translate(-419.379 -451.44)" opacity="0.1"/>
  <ellipse id="Elipse_28" data-name="Elipse 28" cx="14.494" cy="3.267" rx="14.494" ry="3.267" transform="translate(206.531 216.428)" fill="#fbd56f"/>
  <path id="Trazado_100" data-name="Trazado 100" d="M642.891,652.424l-1.377-.767a16.686,16.686,0,0,0-.434,4.6.954.954,0,0,0,.717.825c3.169.787,18.27,4.139,28.655-.583a.953.953,0,0,0,.552-.766,14.27,14.27,0,0,0-.5-4.08C670.113,650.639,642.891,652.424,642.891,652.424Z" transform="translate(-429.481 -438.83)" fill="#fbd56f"/>
  <path id="Trazado_101" data-name="Trazado 101" d="M642.891,652.424l-1.377-.767a16.686,16.686,0,0,0-.434,4.6.954.954,0,0,0,.717.825c3.169.787,18.27,4.139,28.655-.583a.953.953,0,0,0,.552-.766,14.27,14.27,0,0,0-.5-4.08C670.113,650.639,642.891,652.424,642.891,652.424Z" transform="translate(-429.481 -438.83)" opacity="0.1"/>
  <ellipse id="Elipse_29" data-name="Elipse 29" cx="14.494" cy="3.267" rx="14.494" ry="3.267" transform="translate(212.032 209.561)" fill="#fbd56f"/>
  <path id="Trazado_102" data-name="Trazado 102" d="M650.588,629.3l-1.377-.767a16.686,16.686,0,0,0-.434,4.6.954.954,0,0,0,.717.824c3.169.787,18.271,4.139,28.655-.583a.952.952,0,0,0,.552-.766,14.261,14.261,0,0,0-.5-4.08C677.81,627.519,650.588,629.3,650.588,629.3Z" transform="translate(-434.465 -423.861)" fill="#fbd56f"/>
  <path id="Trazado_103" data-name="Trazado 103" d="M650.588,629.3l-1.377-.767a16.686,16.686,0,0,0-.434,4.6.954.954,0,0,0,.717.824c3.169.787,18.271,4.139,28.655-.583a.952.952,0,0,0,.552-.766,14.261,14.261,0,0,0-.5-4.08C677.81,627.519,650.588,629.3,650.588,629.3Z" transform="translate(-434.465 -423.861)" opacity="0.1"/>
  <ellipse id="Elipse_30" data-name="Elipse 30" cx="14.494" cy="3.267" rx="14.494" ry="3.267" transform="translate(214.746 201.409)" fill="#fbd56f"/>
  <path id="Trazado_104" data-name="Trazado 104" d="M719.983,752.711l-1.377-.767a16.686,16.686,0,0,0-.434,4.6.954.954,0,0,0,.717.824c3.169.787,18.27,4.139,28.655-.583a.953.953,0,0,0,.552-.766,14.27,14.27,0,0,0-.5-4.08C747.205,750.925,719.983,752.711,719.983,752.711Z" transform="translate(-479.393 -503.758)" fill="#fbd56f"/>
  <path id="Trazado_105" data-name="Trazado 105" d="M719.983,752.711l-1.377-.767a16.686,16.686,0,0,0-.434,4.6.954.954,0,0,0,.717.824c3.169.787,18.27,4.139,28.655-.583a.953.953,0,0,0,.552-.766,14.27,14.27,0,0,0-.5-4.08C747.205,750.925,719.983,752.711,719.983,752.711Z" transform="translate(-479.393 -503.758)" opacity="0.1"/>
  <ellipse id="Elipse_31" data-name="Elipse 31" cx="14.494" cy="3.267" rx="14.494" ry="3.267" transform="translate(239.212 244.919)" fill="#fbd56f"/>
  <path id="Trazado_106" data-name="Trazado 106" d="M733.867,734.742l-1.377-.767a16.69,16.69,0,0,0-.434,4.6.955.955,0,0,0,.717.824c3.169.787,18.271,4.139,28.655-.583a.953.953,0,0,0,.552-.766,14.27,14.27,0,0,0-.5-4.08C761.089,732.957,733.867,734.742,733.867,734.742Z" transform="translate(-488.382 -492.125)" fill="#fbd56f"/>
  <path id="Trazado_107" data-name="Trazado 107" d="M733.867,734.742l-1.377-.767a16.69,16.69,0,0,0-.434,4.6.955.955,0,0,0,.717.824c3.169.787,18.271,4.139,28.655-.583a.953.953,0,0,0,.552-.766,14.27,14.27,0,0,0-.5-4.08C761.089,732.957,733.867,734.742,733.867,734.742Z" transform="translate(-488.382 -492.125)" opacity="0.1"/>
  <ellipse id="Elipse_32" data-name="Elipse 32" cx="14.494" cy="3.267" rx="14.494" ry="3.267" transform="translate(244.108 238.584)" fill="#fbd56f"/>
  <path id="Trazado_108" data-name="Trazado 108" d="M718.491,716.037l-1.377-.767a16.686,16.686,0,0,0-.434,4.6.954.954,0,0,0,.717.824c3.169.787,18.27,4.139,28.655-.583a.953.953,0,0,0,.552-.766,14.266,14.266,0,0,0-.5-4.081C745.713,714.251,718.491,716.037,718.491,716.037Z" transform="translate(-478.427 -480.014)" fill="#fbd56f"/>
  <path id="Trazado_109" data-name="Trazado 109" d="M718.491,716.037l-1.377-.767a16.686,16.686,0,0,0-.434,4.6.954.954,0,0,0,.717.824c3.169.787,18.27,4.139,28.655-.583a.953.953,0,0,0,.552-.766,14.266,14.266,0,0,0-.5-4.081C745.713,714.251,718.491,716.037,718.491,716.037Z" transform="translate(-478.427 -480.014)" opacity="0.1"/>
  <ellipse id="Elipse_33" data-name="Elipse 33" cx="14.494" cy="3.267" rx="14.494" ry="3.267" transform="translate(238.687 231.989)" fill="#fbd56f"/>
  <path id="Trazado_110" data-name="Trazado 110" d="M753.082,701.026l-1.377-.767a16.686,16.686,0,0,0-.434,4.6.955.955,0,0,0,.717.825c3.169.787,18.27,4.139,28.655-.583a.953.953,0,0,0,.552-.766,14.264,14.264,0,0,0-.5-4.08C780.3,699.24,753.082,701.026,753.082,701.026Z" transform="translate(-500.822 -470.296)" fill="#fbd56f"/>
  <path id="Trazado_111" data-name="Trazado 111" d="M753.082,701.026l-1.377-.767a16.686,16.686,0,0,0-.434,4.6.955.955,0,0,0,.717.825c3.169.787,18.27,4.139,28.655-.583a.953.953,0,0,0,.552-.766,14.264,14.264,0,0,0-.5-4.08C780.3,699.24,753.082,701.026,753.082,701.026Z" transform="translate(-500.822 -470.296)" opacity="0.1"/>
  <ellipse id="Elipse_34" data-name="Elipse 34" cx="14.494" cy="3.267" rx="14.494" ry="3.267" transform="translate(250.882 226.696)" fill="#fbd56f"/>
  <path id="Trazado_112" data-name="Trazado 112" d="M729.711,690.936l-1.377-.767a16.69,16.69,0,0,0-.434,4.6.955.955,0,0,0,.717.824c3.169.787,18.27,4.139,28.655-.583a.953.953,0,0,0,.552-.766,14.267,14.267,0,0,0-.5-4.081C756.933,689.151,729.711,690.936,729.711,690.936Z" transform="translate(-485.691 -463.763)" fill="#fbd56f"/>
  <path id="Trazado_113" data-name="Trazado 113" d="M729.711,690.936l-1.377-.767a16.69,16.69,0,0,0-.434,4.6.955.955,0,0,0,.717.824c3.169.787,18.27,4.139,28.655-.583a.953.953,0,0,0,.552-.766,14.267,14.267,0,0,0-.5-4.081C756.933,689.151,729.711,690.936,729.711,690.936Z" transform="translate(-485.691 -463.763)" opacity="0.1"/>
  <ellipse id="Elipse_35" data-name="Elipse 35" cx="14.494" cy="3.267" rx="14.494" ry="3.267" transform="translate(242.642 223.139)" fill="#fbd56f"/>
  <path id="Trazado_114" data-name="Trazado 114" d="M745.314,671.458l-1.377-.767a16.683,16.683,0,0,0-.434,4.6.954.954,0,0,0,.717.824c3.169.787,18.27,4.139,28.655-.583a.953.953,0,0,0,.552-.766,14.27,14.27,0,0,0-.5-4.08C772.536,669.672,745.314,671.458,745.314,671.458Z" transform="translate(-495.793 -451.152)" fill="#fbd56f"/>
  <path id="Trazado_115" data-name="Trazado 115" d="M745.314,671.458l-1.377-.767a16.683,16.683,0,0,0-.434,4.6.954.954,0,0,0,.717.824c3.169.787,18.27,4.139,28.655-.583a.953.953,0,0,0,.552-.766,14.27,14.27,0,0,0-.5-4.08C772.536,669.672,745.314,671.458,745.314,671.458Z" transform="translate(-495.793 -451.152)" opacity="0.1"/>
  <ellipse id="Elipse_36" data-name="Elipse 36" cx="14.494" cy="3.267" rx="14.494" ry="3.267" transform="translate(248.144 216.272)" fill="#fbd56f"/>
  <path id="Trazado_116" data-name="Trazado 116" d="M753.011,648.338l-1.377-.767a16.683,16.683,0,0,0-.434,4.6.954.954,0,0,0,.717.825c3.169.787,18.27,4.139,28.655-.583a.953.953,0,0,0,.552-.766,14.268,14.268,0,0,0-.5-4.081C780.233,646.552,753.011,648.338,753.011,648.338Z" transform="translate(-500.776 -436.184)" fill="#fbd56f"/>
  <path id="Trazado_117" data-name="Trazado 117" d="M753.011,648.338l-1.377-.767a16.683,16.683,0,0,0-.434,4.6.954.954,0,0,0,.717.825c3.169.787,18.27,4.139,28.655-.583a.953.953,0,0,0,.552-.766,14.268,14.268,0,0,0-.5-4.081C780.233,646.552,753.011,648.338,753.011,648.338Z" transform="translate(-500.776 -436.184)" opacity="0.1"/>
  <ellipse id="Elipse_37" data-name="Elipse 37" cx="14.494" cy="3.267" rx="14.494" ry="3.267" transform="translate(250.857 208.12)" fill="#fbd56f"/>
  <path id="Trazado_118" data-name="Trazado 118" d="M833,496.761c-2.018-.071-2.09-.853-4.684-2.2a26.882,26.882,0,0,1-5.345-4.758q-.2-.214-.385-.418l.687-.014s-.648-5.688-.072-7.039.144-9.385.144-9.385.36-6.115-.288-7.537.216-10.523.216-10.523.576-5.4.72-16.424-6.341-11.376-6.341-11.376-.865-.067-2.177-.192l-.393-.038c.85-1.78,1.346-3.112,1.346-3.112s-1.081-10.309-1.369-12.087-2.017-9.1-2.017-9.1-1.225-3.128-1.945-5.332a17.994,17.994,0,0,0-2.882-4.764s-3.891-7.679-4.972-8.816c-.5-.528-1.2-1.193-1.814-1.755l-.317-.291a12.878,12.878,0,0,0,.258-2.434s-4.035-3.982-4.323-4.977-4.107-4.693-4.107-4.693-2.162-3.982-4.611-4.053a19.987,19.987,0,0,0-3.47.105c.5-1.862,1.1-3.813,1.632-5.487.059-.187.118-.368.176-.548a12.339,12.339,0,0,0,4.426-5.354c.051-.115.1-.232.144-.349.026,0,.052,0,.078,0a1.94,1.94,0,0,0,.3-.027c.807-.139,1.489-1.049,1.117-1.768a.263.263,0,0,0,.235.129c.269-.009.6-.4.66-.74.011-.059.017-.119.026-.179s.024-.148.032-.223.014-.14.019-.211.012-.145.015-.218.006-.136.007-.2,0-.157,0-.235c0-.063,0-.125,0-.188,0-.1-.012-.19-.021-.285,0-.039,0-.078-.009-.117v.006a6.384,6.384,0,0,0-.232-1.147c-.4-1.322-1.234-2.632-.912-3.974,0-.014.01-.028.014-.042v0c.268-1.041,1.169-1.8,1.72-2.728.053-.089.1-.18.144-.272.008-.017.018-.033.026-.05.033-.069.061-.14.09-.211.019-.045.039-.09.057-.136.023-.062.042-.125.063-.188s.038-.114.054-.172.028-.112.041-.168.032-.136.045-.2c.009-.049.017-.1.024-.148.012-.078.023-.155.032-.234,0-.042.008-.085.011-.127.007-.087.012-.175.014-.262,0-.035,0-.07,0-.105q0-.144-.007-.287c0-.029,0-.057-.005-.086-.007-.1-.018-.2-.031-.306,0-.015,0-.03,0-.044v0a5.124,5.124,0,0,0-1.032-2.451,6.315,6.315,0,0,0-5.186-2.243,8.69,8.69,0,0,1-1.631.03,5.387,5.387,0,0,1-2.391-1.262l-6.035-4.649a7.448,7.448,0,0,0-2.281-1.356,2.548,2.548,0,0,0-2.507.452c-1.13,1.115-.412,3.034-.865,4.546a4.416,4.416,0,0,1-2.967,2.64c-1.31.442-2.711.539-4.056.86a2.239,2.239,0,0,0-1.085.5,2.1,2.1,0,0,0-.472,1.512,8.152,8.152,0,0,0,.937,3.845c.255.483.563.971.833,1.465l.066.123c.03.057.061.113.089.17q.07.139.134.278c.018.04.035.081.052.121q.042.1.081.2.024.063.047.126c.027.078.052.156.074.234a2.6,2.6,0,0,1,.039,1.418,5.263,5.263,0,0,1-1.33,1.95,3.793,3.793,0,0,0-.889,1.648l0,.014a1.326,1.326,0,0,0-.016.435c0,.018,0,.036.008.054a.755.755,0,0,0,.027.1.654.654,0,0,0,.028.066.632.632,0,0,0,.037.074.57.57,0,0,0,.092.108.616.616,0,0,0,.051.038.608.608,0,0,0,.093.057c.02.01.04.019.062.027a.857.857,0,0,0,.148.04c.014,0,.026.007.041.009a1.352,1.352,0,0,0,.232.01l.07-.005a2.2,2.2,0,0,0,.221-.028l.081-.015a3.5,3.5,0,0,0,.34-.087,7.633,7.633,0,0,0,1.177-.465c0,.043,0,.086,0,.129,0,.075,0,.153.007.228a11.985,11.985,0,0,0,.778,4.078,12.317,12.317,0,0,0,3.757,5.192q-.031.184-.069.37c-.347,1.7-1.074,3.416-1.522,3.283a6.113,6.113,0,0,0-1.336-.146c-.136,0-.268-.006-.393-.007h0a5.331,5.331,0,0,0-1.225,0,1.327,1.327,0,0,1-.536-.074,7.309,7.309,0,0,0-3.6-.2c-2.491.511-6.281,1.445-7.321,2.562-1.585,1.706-3.891,3.342-6.485,10.452,0,0-1.3,4.337-2.306,4.906a6.717,6.717,0,0,1,.684-.308,1.825,1.825,0,0,1-.54.592,7.95,7.95,0,0,1,1.135-.473c-.787,4.632.378,17.883.378,17.883s-.937,2.285.288,3.636a6.846,6.846,0,0,1,1.326,2.941l-.177.276h0c-.648,1.005-1.516,2.316-2.085,3.039-1.009,1.28-.721,5.333-.721,5.333a5.644,5.644,0,0,1-.937,2.631c-.72.711-.576,3.342-.576,3.342l-1.873,6.9s-1.729,1.564-1.729,2.275a9.344,9.344,0,0,1-1.369,2.7s-2.09,3.413,0,2.915a6.558,6.558,0,0,0,2.11-1.061v.051q0,.188-.007.381c-.059,3.717.346,8.947,3.087,8.947,4.251,0,15.2,5.048,15.2,5.048a7.345,7.345,0,0,0,5.26,1.138s-5.332,5.333-5.188,7.537-3.026,5.83-3.026,5.83l-9.8,19.126a14.673,14.673,0,0,0,.7,3.92c-.047.041-.095.079-.141.121-3.765,3.44-4.093,10.25-4.093,10.25l-.865,3.484,13.114,5.759s17,.355,19.959-.427,2.306-4.053-1.585-4.693-4.828-2.346-6.124-3.128c-.875-.528-3.982-3.938-5.91-6.1l-.085-.1.447-2.48c.865-.427,2.162-4.693,2.162-4.693s0-1.706.865-2.2,2.666-5.617,2.666-5.617,3.891-6.47,3.675-7.323,2.81-5.19,2.81-5.19,5.116-4.977,4.9-5.866,4.107-5.439,4.107-5.439a14.425,14.425,0,0,0,3.826-4.405c.389-.063.807-.129,1.248-.2,5.657-.927,15.059-2.6,16.109-3.07,1.441-.64,1.153,2.2.576,4.621s-1.009,14.007-.36,15.5a9.337,9.337,0,0,1,.36,3.911l-.865,13.011.576,2.773s-1.945,1.564-1.153,2.489.072,4.906.072,4.906c.068-.025.149-.05.239-.074-.069.156-.135.316-.195.485-1.117,3.184-.477,8.405-.477,8.405v4.124s19.959.355,24.354.355,10.448-2.133,10.808-3.839S835.012,496.832,833,496.761Zm-56.766-74.018-1.307.11A10.855,10.855,0,0,1,776.229,422.743Zm7.971-54.574c.183-.823.405-1.707.65-2.615Zm2.465,56.568a5.29,5.29,0,0,1-3.882,0l-.009,0a41.2,41.2,0,0,1,.648-7.039c.576-2.062,1.369-5.83,1.369-5.83a76.328,76.328,0,0,1,1.3-7.537c.649-2.346,3.17-15.429,4.467-16.282a1.366,1.366,0,0,1,2.017.64s.194,0,.519-.04q.091.2.206.435a107.056,107.056,0,0,0,6.048,9.488,10.388,10.388,0,0,1,3.314,3.271c1.225,2.062,1.585,6.9,1.585,6.9s2.738,10.736,4.035,12.229c.649.747.36,1.192-.089,1.449a6.382,6.382,0,0,0-2.274,2.1c-.185.293-.38.615-.578.957-.5-.115-.94-.234-1.309-.359-3.531-1.186-15.42-1.233-17.365-.38Z" transform="translate(-493.402 -228.579)" fill="url(#linear-gradient)"/>
  <path id="Trazado_119" data-name="Trazado 119" d="M922.82,794.716v4.089s19.53.353,23.831.353,10.223-2.115,10.576-3.807-4.935-3.1-6.91-3.173-2.045-.846-4.583-2.186a26.414,26.414,0,0,1-5.23-4.718c-1.251-1.364-2.173-2.473-2.173-2.473s-10.505-.212-13.537,1.481a3.668,3.668,0,0,0-1.507,2.1C922.195,789.539,922.82,794.716,922.82,794.716Z" transform="translate(-611.8 -523.934)" fill="#434175"/>
  <path id="Trazado_120" data-name="Trazado 120" d="M924.472,786.381c2.2-.766,15.1-1.063,17.217-1.107-1.251-1.364-2.173-2.473-2.173-2.473s-10.505-.212-13.537,1.481A3.67,3.67,0,0,0,924.472,786.381Z" transform="translate(-612.985 -523.934)" opacity="0.1"/>
  <path id="Trazado_121" data-name="Trazado 121" d="M763.77,602.861l1.139.688c.133.079.275.166.427.258.464.281,1.021.615,1.657,1,8.861,5.34,33.033,19.816,34.356,19.7.347-.03,1.389-.186,2.827-.42.381-.062.79-.128,1.221-.2,5.536-.919,14.736-2.582,15.764-3.044,1.41-.635,1.128,2.186.564,4.583s-.987,13.89-.352,15.37a9.378,9.378,0,0,1,.352,3.878l-.846,12.9.564,2.75s-1.9,1.551-1.128,2.468.07,4.865.07,4.865c2.256-.846,17.556-1.128,17.556-1.128s-.635-5.64-.07-6.98.141-9.307.141-9.307.353-6.063-.282-7.473.211-10.435.211-10.435.564-5.358.705-16.287-6.2-11.281-6.2-11.281-.846-.066-2.131-.19a94.5,94.5,0,0,1-9.5-1.31,15.863,15.863,0,0,1-1.7-.45c-3.455-1.176-15.088-1.223-16.992-.377a5.113,5.113,0,0,1-3.8,0l-.008,0-1.481-2.4L782.7,601.247l-1.5.128-13.922,1.187-.957.082Z" transform="translate(-508.942 -405.615)" fill="#565387"/>
  <path id="Trazado_122" data-name="Trazado 122" d="M920.68,619.6c4.108,2,8.028-5.1,9.855-9.1a94.55,94.55,0,0,1-9.5-1.31C919.2,612.272,916.742,617.677,920.68,619.6Z" transform="translate(-609.166 -411.535)" opacity="0.1"/>
  <path id="Trazado_123" data-name="Trazado 123" d="M889.552,489.966a4.307,4.307,0,0,0,.5,1.379,106.331,106.331,0,0,0,5.918,9.408A10.222,10.222,0,0,1,899.211,504c1.2,2.045,1.551,6.839,1.551,6.839s2.679,10.646,3.948,12.127c.635.74.353,1.182-.087,1.437a6.279,6.279,0,0,0-2.225,2.083c-1.849,2.972-4.8,8.868-.649,10.892,5.64,2.75,10.928-11.662,10.928-11.662s-1.057-10.223-1.339-11.986-1.974-9.025-1.974-9.025-1.2-3.1-1.9-5.288a17.884,17.884,0,0,0-2.82-4.724s-3.807-7.614-4.865-8.742c-.491-.523-1.179-1.183-1.775-1.74-.69-.644-1.256-1.151-1.256-1.151S889.481,488.274,889.552,489.966Z" transform="translate(-590.376 -329.876)" fill="#ee8e9e"/>
  <path id="Trazado_124" data-name="Trazado 124" d="M753.971,785.588,766.8,791.3s16.639.353,19.53-.423,2.256-4.019-1.551-4.653-4.724-2.327-5.993-3.1c-.856-.523-3.9-3.9-5.783-6.048-.908-1.032-1.55-1.778-1.55-1.778s-2.468-6.557-9.307-5.076a7.007,7.007,0,0,0-3.328,1.751c-3.685,3.411-4,10.164-4,10.164Z" transform="translate(-502.598 -515.652)" fill="#434175"/>
  <path id="Trazado_125" data-name="Trazado 125" d="M768.213,603.29c.464.281,1.021.615,1.657,1,8.861,5.34,33.033,19.816,34.356,19.7.347-.03,1.389-.186,2.827-.42.381-.062.79-.128,1.221-.2.017-.027.032-.054.048-.08a16.2,16.2,0,0,0,1.615-3.951c1.481-5.64-5.852-9.941-5.852-9.941l-1.551-1.206c-1.763-2.968-14.454-5.774-14.454-5.774l-1.636-1.1-.873-.587-.23-.154-1.985-1.334-9.941.705-2.953,1.9-.312.2-1.1.705Z" transform="translate(-511.818 -405.097)" opacity="0.1"/>
  <path id="Trazado_126" data-name="Trazado 126" d="M767.729,771.97c2.7,9.335,13.974,6.286,13.974,6.286l.21-1.183c-.908-1.032-1.55-1.778-1.55-1.778s-2.468-6.557-9.307-5.076A7.006,7.006,0,0,0,767.729,771.97Z" transform="translate(-511.505 -515.652)" opacity="0.1"/>
  <path id="Trazado_127" data-name="Trazado 127" d="M753.815,619.571c4.16,0,14.876,5.006,14.876,5.006a7.107,7.107,0,0,0,5.147,1.128s-5.217,5.288-5.076,7.474-2.961,5.781-2.961,5.781l-9.589,18.966c.705,13.466,14.524,9.73,14.524,9.73l.564-3.173c.846-.423,2.115-4.653,2.115-4.653s0-1.692.846-2.186,2.609-5.57,2.609-5.57,3.807-6.416,3.6-7.262,2.75-5.147,2.75-5.147,5.006-4.935,4.794-5.817,4.019-5.394,4.019-5.394a14.236,14.236,0,0,0,3.744-4.368,16.208,16.208,0,0,0,1.614-3.951c1.193-4.542-3.331-8.217-5.137-9.473-.437-.3-.715-.468-.715-.468l-1.551-1.206c-.8-1.351-3.864-2.666-6.964-3.7-2.236-.746-4.494-1.345-5.936-1.7-.955-.237-1.553-.369-1.553-.369l-1.636-1.1-.575-.386-.527-.354-1.985-1.334-4.423.313-5.518.392-2.953,1.9-1.407.905-5.511,3.542s-.145,1.357-.192,3.177c0,.141-.006.283-.008.43C750.737,614.385,751.133,619.571,753.815,619.571Z" transform="translate(-500.538 -405.615)" fill="#565387"/>
  <path id="Trazado_128" data-name="Trazado 128" d="M819.562,418.884l1.481,5.288s2.609,9.1,2.891,9.73,7.121,7.05,7.4,7.191,4.006,2.256,4.006,2.256.295-11.633.013-15.018a9.659,9.659,0,0,1,.183-2.217,83.37,83.37,0,0,1,2.531-9.536c.79-2.51,1.445-4.392,1.445-4.392s-16.5-.705-15.934.917a5.793,5.793,0,0,1-.062,2.667c-.34,1.691-1.051,3.387-1.489,3.256a5.9,5.9,0,0,0-1.307-.145C820.113,418.862,819.562,418.884,819.562,418.884Z" transform="translate(-545.063 -283.894)" fill="#ee8e9e"/>
  <path id="Trazado_129" data-name="Trazado 129" d="M830.785,415.769a12.2,12.2,0,0,0,14.551.809c.79-2.51,1.445-4.392,1.445-4.392s-16.5-.7-15.934.917A5.79,5.79,0,0,1,830.785,415.769Z" transform="translate(-552.329 -283.894)" opacity="0.1"/>
  <path id="Trazado_130" data-name="Trazado 130" d="M842.761,372.479a12.151,12.151,0,0,1-.61,3.808q-.153.476-.353.934a12.2,12.2,0,0,1-22.663-.472,12.025,12.025,0,0,1-.761-4.044c-.007-.074-.007-.152-.007-.226a12.2,12.2,0,0,1,24.395,0Z" transform="translate(-544.289 -250.388)" fill="#ee8e9e"/>
  <path id="Trazado_131" data-name="Trazado 131" d="M819.562,431.443l1.481,5.288s2.609,9.1,2.891,9.73,7.121,7.051,7.4,7.191,4.006,2.256,4.006,2.256.295-11.633.013-15.018a9.659,9.659,0,0,1,.183-2.217l-.959,3.909.071,7.826.564.423-1.269,1.9v-1.41s-4.512-4.371-5.217-6.2a30.773,30.773,0,0,0-3.243-5.152s-2.891-4.859-2.961-5.705a9.1,9.1,0,0,0-1.8-2.824C820.113,431.421,819.562,431.443,819.562,431.443Z" transform="translate(-545.063 -296.453)" opacity="0.1"/>
  <path id="Trazado_132" data-name="Trazado 132" d="M889.552,489.966a4.309,4.309,0,0,0,.5,1.379,8.7,8.7,0,0,0,7.95-7.138c-.69-.644-1.256-1.151-1.256-1.151S889.481,488.274,889.552,489.966Z" transform="translate(-590.376 -329.876)" opacity="0.1"/>
  <path id="Trazado_133" data-name="Trazado 133" d="M750.8,610.7c1.423-1.007,2.776-2.38,3.584-2.761a15.57,15.57,0,0,0,3.032-2.4s.465-.316,1.179-.735a14.248,14.248,0,0,1,5.1-2.015c1.472-.123,6.362-.436,10.209-.675,2.784-.175,5.02-.312,5.02-.312s4.583-1.622,6.557-.564a20.715,20.715,0,0,0,4.442,1.622s0-.154.008-.419l-.008,0-1.481-2.4L772.8,601.375l-1.985-1.334-9.941.705-2.953,1.9-2.547.217,1.139.688L751,607.092S750.835,608.667,750.8,610.7Z" transform="translate(-500.547 -405.615)" opacity="0.1"/>
  <path id="Trazado_134" data-name="Trazado 134" d="M743.3,501.41a6.384,6.384,0,0,0,2.064-1.052h0c1.42-1.005,2.769-2.375,3.576-2.754a15.574,15.574,0,0,0,3.032-2.4s3.737-2.538,6.275-2.75c.692-.058,2.139-.158,3.878-.271,1.78-.118,3.862-.251,5.756-.368l2.988-.188,2.607-.161s4.583-1.622,6.557-.564a20.717,20.717,0,0,0,4.442,1.622,41.386,41.386,0,0,1,.635-6.98c.564-2.045,1.34-5.781,1.34-5.781s.635-5.147,1.269-7.474,3.1-15.3,4.371-16.146,1.974.635,1.974.635,8.461-.141,8.6-9.448c0,0-3.948-3.948-4.23-4.935s-4.018-4.653-4.018-4.653-2.115-3.948-4.512-4.019a19.29,19.29,0,0,0-3.4.1l-2.033,8.286.07,7.826.564.423-1.269,1.9v-1.41s-4.512-4.371-5.217-6.2a30.777,30.777,0,0,0-3.243-5.152s-2.891-4.859-2.961-5.705-2.045-3.113-2.045-3.113a5.146,5.146,0,0,0-1.2,0,1.283,1.283,0,0,1-.525-.073,7.061,7.061,0,0,0-3.522-.2c-2.438.506-6.147,1.433-7.163,2.541-1.551,1.692-3.807,3.314-6.345,10.364l13.678,4.935-1.17,2.225-10.886,20.689s-.361.588-.85,1.357h0c-.635,1-1.483,2.3-2.04,3.013-.987,1.269-.705,5.288-.705,5.288a5.646,5.646,0,0,1-.917,2.609c-.705.705-.564,3.314-.564,3.314l-1.833,6.839s-1.692,1.551-1.692,2.256a9.312,9.312,0,0,1-1.34,2.679S741.259,501.9,743.3,501.41Z" transform="translate(-495.103 -295.703)" fill="#434175"/>
  <path id="Trazado_135" data-name="Trazado 135" d="M939.129,646.435s-4.442,1.481-5.641,3.6S939.129,646.435,939.129,646.435Z" transform="translate(-618.731 -435.652)" opacity="0.1"/>
  <path id="Trazado_136" data-name="Trazado 136" d="M932.828,633.237c-.141.211-6.084,6.175-5.711,7.615S932.828,633.237,932.828,633.237Z" transform="translate(-614.687 -427.107)" opacity="0.1"/>
  <path id="Trazado_137" data-name="Trazado 137" d="M837.5,645.235s-6.627,3.126-7.191,4.489S837.5,645.235,837.5,645.235Z" transform="translate(-552.001 -434.875)" opacity="0.1"/>
  <path id="Trazado_138" data-name="Trazado 138" d="M836.963,656.634s-5.981,2.538-6.8,3.173S836.963,656.634,836.963,656.634Z" transform="translate(-551.888 -442.255)" opacity="0.1"/>
  <path id="Trazado_139" data-name="Trazado 139" d="M833.765,671.3s-2.649,1.974-4.109.423S833.765,671.3,833.765,671.3Z" transform="translate(-551.44 -451.497)" opacity="0.1"/>
  <path id="Trazado_140" data-name="Trazado 140" d="M848.75,526.051c-.142.211-8.955,16.075-11.282,17.274S848.75,526.051,848.75,526.051Z" transform="translate(-556.483 -357.712)" opacity="0.1"/>
  <path id="Trazado_141" data-name="Trazado 141" d="M850.15,543.049c0,.353-8.6,18.754-10.012,18.966S850.15,543.049,850.15,543.049Z" transform="translate(-558.307 -368.717)" opacity="0.1"/>
  <path id="Trazado_142" data-name="Trazado 142" d="M764.923,576.644s-4.154,8.871-5.781,9.377S764.923,576.644,764.923,576.644Z" transform="translate(-505.794 -390.467)" opacity="0.1"/>
  <path id="Trazado_143" data-name="Trazado 143" d="M769.464,565.446s-1.432,3.1-2.3,3.1S769.464,565.446,769.464,565.446Z" transform="translate(-511.039 -383.217)" opacity="0.1"/>
  <path id="Trazado_144" data-name="Trazado 144" d="M842.761,372.479a12.153,12.153,0,0,1-.61,3.808,9.977,9.977,0,0,1-.353.934,3.587,3.587,0,0,1-1.71-.751,4.235,4.235,0,0,1-1.28-1.368,17.127,17.127,0,0,1-.624-1.78,4.142,4.142,0,0,0-3.346-2.535,1.3,1.3,0,0,1-1.033,1.763,2.523,2.523,0,0,1-2.112-.941c-.546-.589-.941-1.3-1.484-1.893a2.523,2.523,0,0,0-2.112-.941,4.829,4.829,0,0,0-1.833,1.04,1.765,1.765,0,0,1-1.974.24c-.317-.236-.472-.638-.776-.9-.779-.652-1.992.021-2.567.864a6.812,6.812,0,0,1-2.574,2.683c-.007-.074-.007-.152-.007-.226a12.2,12.2,0,0,1,24.395,0Z" transform="translate(-544.289 -250.388)" opacity="0.1"/>
  <path id="Trazado_145" data-name="Trazado 145" d="M815.875,350.591c.574-.843,1.786-1.518,2.567-.862.3.254.458.657.774.895a1.764,1.764,0,0,0,1.975-.241,4.8,4.8,0,0,1,1.832-1.04,2.516,2.516,0,0,1,2.112.941c.545.589.94,1.3,1.485,1.893a2.515,2.515,0,0,0,2.112.94,1.3,1.3,0,0,0,1.032-1.762,4.143,4.143,0,0,1,3.345,2.535,17.191,17.191,0,0,0,.625,1.78,4.223,4.223,0,0,0,1.281,1.367,3.033,3.033,0,0,0,2.221.737c.79-.138,1.459-1.043,1.092-1.756.253.384.795-.151.877-.6a6.449,6.449,0,0,0-.163-2.976c-.39-1.311-1.207-2.61-.892-3.941.249-1.053,1.149-1.81,1.7-2.744a4.96,4.96,0,0,0-.466-5.4,6.143,6.143,0,0,0-5.075-2.224,8.388,8.388,0,0,1-1.6.03,5.247,5.247,0,0,1-2.339-1.252l-5.906-4.61a7.268,7.268,0,0,0-2.232-1.345,2.467,2.467,0,0,0-2.453.448c-1.106,1.106-.4,3.009-.847,4.508a4.342,4.342,0,0,1-2.9,2.617c-1.281.439-2.653.535-3.969.852a2.178,2.178,0,0,0-1.062.495,2.1,2.1,0,0,0-.461,1.5,8.171,8.171,0,0,0,.917,3.813c.684,1.315,1.768,2.667,1.384,4.1a5.221,5.221,0,0,1-1.3,1.934c-1.116,1.284-1.493,3.18.607,2.518C814.165,353.1,814.733,352.269,815.875,350.591Z" transform="translate(-539.215 -231.311)" fill="#434175"/>
  <g id="Grupo_120" data-name="Grupo 120" transform="translate(271.322 109.506)" opacity="0.1">
    <path id="Trazado_146" data-name="Trazado 146" d="M839.4,385.462c-.082.452-.624.986-.877.6.367.713-.3,1.619-1.092,1.756a3.034,3.034,0,0,1-2.221-.737,4.222,4.222,0,0,1-1.281-1.367,17.142,17.142,0,0,1-.625-1.78,4.143,4.143,0,0,0-3.345-2.535,1.3,1.3,0,0,1-1.032,1.762,2.515,2.515,0,0,1-2.112-.94c-.545-.589-.94-1.3-1.485-1.893a2.516,2.516,0,0,0-2.112-.941,4.8,4.8,0,0,0-1.832,1.04,1.764,1.764,0,0,1-1.975.241c-.316-.238-.471-.641-.774-.895-.781-.656-1.994.019-2.567.862-1.141,1.678-1.709,2.505-3.732,3.143-.664.209-1.079.162-1.3-.04-.444,1.019-.242,1.917,1.3,1.43,2.023-.638,2.59-1.465,3.732-3.143.574-.843,1.786-1.518,2.567-.862.3.254.458.657.774.895a1.764,1.764,0,0,0,1.975-.241,4.8,4.8,0,0,1,1.832-1.04,2.516,2.516,0,0,1,2.112.941c.545.589.94,1.3,1.485,1.893a2.515,2.515,0,0,0,2.112.94,1.3,1.3,0,0,0,1.032-1.762,4.143,4.143,0,0,1,3.345,2.535,17.13,17.13,0,0,0,.625,1.78,4.223,4.223,0,0,0,1.281,1.367,3.034,3.034,0,0,0,2.221.737c.79-.138,1.459-1.043,1.092-1.756.253.384.795-.151.877-.6a6.441,6.441,0,0,0,.063-1.844C839.448,385.16,839.428,385.312,839.4,385.462Z" transform="translate(-810.732 -372.252)"/>
    <path id="Trazado_147" data-name="Trazado 147" d="M812.836,366.312c.005-.018.013-.035.018-.054.384-1.432-.7-2.784-1.384-4.1a8.173,8.173,0,0,1-.876-2.978,3.966,3.966,0,0,0-.04.555,8.17,8.17,0,0,0,.917,3.813A14.365,14.365,0,0,1,812.836,366.312Z" transform="translate(-810.553 -359.181)"/>
    <path id="Trazado_148" data-name="Trazado 148" d="M890.443,366.335c-.546.934-1.447,1.691-1.7,2.744a3.06,3.06,0,0,0,.012,1.351c.262-1.032,1.144-1.783,1.683-2.705a4.633,4.633,0,0,0,.543-2.977A4.363,4.363,0,0,1,890.443,366.335Z" transform="translate(-861.133 -362.785)"/>
  </g>
  <path id="Trazado_149" data-name="Trazado 149" d="M770.757,509.614h0a10.792,10.792,0,0,1,.216,1.18s5.57,13.043,6.275,13.819c.217.238,1.035,1.411,2.063,2.922.372.546.771,1.136,1.18,1.743,2.132,3.164,4.512,6.757,4.512,6.757l5.217,4.583s11.35.908,14.957-2.775c-.437-.3-.715-.468-.715-.468l-1.551-1.206c-.8-1.351-3.864-2.666-6.964-3.7-2.857.021-5.193.252-5.193.252l-.743-1.957-.776-2.042-3.944-10.384s-2.544-13.114-3.39-13.748-.635-2.609-.635-2.609,1.551-5.57.987-6.345.917-6.486.917-6.486a5.918,5.918,0,0,0-.677-1.582l-10.886,20.689S771.246,508.845,770.757,509.614Z" transform="translate(-513.465 -332.797)" opacity="0.1"/>
  <path id="Trazado_150" data-name="Trazado 150" d="M779.559,479.863s-1.481,5.711-.917,6.486-.987,6.345-.987,6.345-.211,1.974.635,2.609,3.39,13.748,3.39,13.748l5.463,14.383s17.094-1.692,15.331,3.666-15.864,4.23-15.864,4.23l-5.217-4.583s-7.051-10.646-7.755-11.422-6.275-13.819-6.275-13.819a8.429,8.429,0,0,0-1.481-3.948c-1.2-1.34-.282-3.605-.282-3.605s-1.481-17.053.071-19.1S777.937,473.729,779.559,479.863Z" transform="translate(-509.713 -323.933)" fill="#ee8e9e"/>
  <path id="Trazado_151" data-name="Trazado 151" d="M769.268,458.677l-4.442,2.679s-1.269,4.3-2.256,4.865c0,0,8.883-4.935,15.582,6.416a2.569,2.569,0,0,1,.705-2.186c.917-.705.705-3.737.705-3.737a12.208,12.208,0,0,0,.635-1.481C780.831,463.683,777.517,454.8,769.268,458.677Z" transform="translate(-508.165 -313.463)" opacity="0.1"/>
  <path id="Trazado_152" data-name="Trazado 152" d="M768.869,457.877l-4.442,2.679s-1.269,4.3-2.256,4.865c0,0,8.884-4.935,15.581,6.416a2.569,2.569,0,0,1,.705-2.186c.917-.705.705-3.737.705-3.737a12.209,12.209,0,0,0,.635-1.481C780.431,462.883,777.117,454,768.869,457.877Z" transform="translate(-507.906 -312.945)" fill="#434175"/>
  <ellipse id="Elipse_38" data-name="Elipse 38" cx="13.241" cy="14.055" rx="13.241" ry="14.055" transform="translate(208.131 240.294)" fill="#fbd56f"/>
  <ellipse id="Elipse_39" data-name="Elipse 39" cx="13.241" cy="14.055" rx="13.241" ry="14.055" transform="translate(208.131 240.294)" opacity="0.1"/>
  <ellipse id="Elipse_40" data-name="Elipse 40" cx="13.241" cy="13.742" rx="13.241" ry="13.742" transform="translate(210.416 240.919)" fill="#fbd56f"/>
  <ellipse id="Elipse_41" data-name="Elipse 41" cx="16.354" cy="2.765" rx="16.354" ry="2.765" transform="translate(15.428 256.544)" fill="#6c63ff"/>
  <path id="Trazado_153" data-name="Trazado 153" d="M122.53,757.4a4.747,4.747,0,0,0,1.559-2.353,2.092,2.092,0,0,0-1.09-2.4c-1-.383-2.07.311-2.881,1.011s-1.74,1.5-2.8,1.352a4.264,4.264,0,0,0,1.319-3.991,1.666,1.666,0,0,0-.367-.81c-.555-.594-1.562-.339-2.228.129-2.115,1.488-2.705,4.361-2.717,6.947a13.144,13.144,0,0,1-.039-2.862,2.936,2.936,0,0,0-1.075-2.531,3.238,3.238,0,0,0-1.639-.385,3.391,3.391,0,0,0-2.659.756,2.644,2.644,0,0,0,.1,3.265,10.3,10.3,0,0,0,2.752,2.2,6.1,6.1,0,0,1,1.967,1.876,1.859,1.859,0,0,1,.146.335h5.961a16.607,16.607,0,0,0,3.686-2.546Z" transform="translate(-83.986 -502.618)" fill="#6c63ff"/>
  <path id="Trazado_154" data-name="Trazado 154" d="M520.928,728.4a14.257,14.257,0,0,1,1.773,3.237c.118.3.234.61.344.938,1.762,5.266-1.03,11.58-1.828,10.9s-3.285-1.945-3.766-.169a10.192,10.192,0,0,1-2.257,3.591c-3.237,3.255-6.166-.262-8.089-3.9a35.194,35.194,0,0,1-1.673-3.7c-.427-1.116-.672-1.887-.672-1.887l13.481-11.486A7.979,7.979,0,0,1,520.928,728.4Z" transform="translate(-341.25 -487.118)" fill="#6c63ff"/>
  <path id="Trazado_155" data-name="Trazado 155" d="M460.664,749.23a14.259,14.259,0,0,1,1.772,3.237c.118.3.234.61.344.938,1.762,5.266-1.03,11.58-1.828,10.9s-3.285-1.945-3.766-.169a10.19,10.19,0,0,1-2.257,3.591c-3.237,3.255-6.166-.262-8.089-3.9a35.213,35.213,0,0,1-1.673-3.7c-.427-1.116-.672-1.887-.672-1.887l13.481-11.486A7.978,7.978,0,0,1,460.664,749.23Z" transform="translate(-302.234 -500.605)" fill="#6c63ff"/>
  <path id="Trazado_156" data-name="Trazado 156" d="M331.918,775.9a14.255,14.255,0,0,1-.7,3.623c-.1.3-.209.62-.334.942-2,5.178-8.183,8.258-8.363,7.224s-1.288-3.594-2.792-2.534a10.191,10.191,0,0,1-4.03,1.324c-4.569.441-4.58-4.137-3.741-8.162a35.221,35.221,0,0,1,1.071-3.914c.384-1.132.687-1.882.687-1.882l17.709-.24A7.981,7.981,0,0,1,331.918,775.9Z" transform="translate(-216.15 -517.131)" fill="#6c63ff"/>
  <path id="Trazado_157" data-name="Trazado 157" d="M267.019,759.535a14.256,14.256,0,0,1-.7,3.623c-.1.3-.209.619-.334.942-2,5.178-8.183,8.258-8.363,7.224s-1.288-3.594-2.792-2.534a10.191,10.191,0,0,1-4.03,1.324c-4.569.441-4.58-4.137-3.741-8.162a35.215,35.215,0,0,1,1.071-3.914c.384-1.132.687-1.882.687-1.882l17.709-.24A7.98,7.98,0,0,1,267.019,759.535Z" transform="translate(-174.133 -506.534)" fill="#6c63ff"/>
  <path id="Trazado_158" data-name="Trazado 158" d="M520.928,728.4a14.257,14.257,0,0,1,1.773,3.237c.118.3.234.61.344.938,1.762,5.266-1.03,11.58-1.828,10.9s-3.285-1.945-3.766-.169a10.192,10.192,0,0,1-2.257,3.591c-3.237,3.255-6.166-.262-8.089-3.9a35.194,35.194,0,0,1-1.673-3.7c-.427-1.116-.672-1.887-.672-1.887l13.481-11.486A7.979,7.979,0,0,1,520.928,728.4Z" transform="translate(-341.25 -487.118)" opacity="0.2"/>
  <path id="Trazado_159" data-name="Trazado 159" d="M460.664,749.23a14.259,14.259,0,0,1,1.772,3.237c.118.3.234.61.344.938,1.762,5.266-1.03,11.58-1.828,10.9s-3.285-1.945-3.766-.169a10.19,10.19,0,0,1-2.257,3.591c-3.237,3.255-6.166-.262-8.089-3.9a35.213,35.213,0,0,1-1.673-3.7c-.427-1.116-.672-1.887-.672-1.887l13.481-11.486A7.978,7.978,0,0,1,460.664,749.23Z" transform="translate(-302.234 -500.605)" opacity="0.2"/>
  <path id="Trazado_160" data-name="Trazado 160" d="M331.918,775.9a14.255,14.255,0,0,1-.7,3.623c-.1.3-.209.62-.334.942-2,5.178-8.183,8.258-8.363,7.224s-1.288-3.594-2.792-2.534a10.191,10.191,0,0,1-4.03,1.324c-4.569.441-4.58-4.137-3.741-8.162a35.221,35.221,0,0,1,1.071-3.914c.384-1.132.687-1.882.687-1.882l17.709-.24A7.981,7.981,0,0,1,331.918,775.9Z" transform="translate(-216.15 -517.131)" opacity="0.2"/>
  <path id="Trazado_161" data-name="Trazado 161" d="M267.019,759.535a14.256,14.256,0,0,1-.7,3.623c-.1.3-.209.619-.334.942-2,5.178-8.183,8.258-8.363,7.224s-1.288-3.594-2.792-2.534a10.191,10.191,0,0,1-4.03,1.324c-4.569.441-4.58-4.137-3.741-8.162a35.215,35.215,0,0,1,1.071-3.914c.384-1.132.687-1.882.687-1.882l17.709-.24A7.98,7.98,0,0,1,267.019,759.535Z" transform="translate(-174.133 -506.534)" opacity="0.2"/>
  <path id="Trazado_162" data-name="Trazado 162" d="M322.615,388.773c0,47.3-16,85.645-89.842,85.645-49.618,0-88.006-12.329-89.842-85.645-1.184-47.286,40.224-85.645,89.842-85.645S322.615,341.473,322.615,388.773Z" transform="translate(-106.977 -213.385)" fill="#6c63ff"/>
  <path id="Trazado_163" data-name="Trazado 163" d="M349.994,307.369H350l-.008,0Z" transform="translate(-241.051 -216.131)" opacity="0.2"/>
  <path id="Trazado_164" data-name="Trazado 164" d="M350.261,307.012c.228-.037.679-.1,1.335-.15l-1.461.173q.031-.008.079-.016Z" transform="translate(-241.143 -215.803)" opacity="0.2"/>
  <path id="Trazado_165" data-name="Trazado 165" d="M419.35,339.879l-6.558,2.361A146.473,146.473,0,0,0,402.019,329.4a105.242,105.242,0,0,0-13.643-12.221c-16.791-12.444-29.778-12.762-34.067-12.442l9.858-1.159a80.146,80.146,0,0,1,26.465,9.567,87.431,87.431,0,0,1,15.9,11.749A77.765,77.765,0,0,1,419.35,339.879Z" transform="translate(-243.845 -213.674)" opacity="0.2"/>
  <path id="Trazado_166" data-name="Trazado 166" d="M362.8,351.264s-8.656-28.854-1.312-36.724c0,0,11.542-3.935,20.2,18.362Z" transform="translate(-246.582 -220.6)" opacity="0.2"/>
  <path id="Trazado_167" data-name="Trazado 167" d="M494.962,312.686s22.956-19.508,33.111-15.938c0,0,8.235,8.993-8.714,25.869Z" transform="translate(-334.908 -208.972)" fill="#6c63ff"/>
  <path id="Trazado_168" data-name="Trazado 168" d="M494.962,312.686s22.956-19.508,33.111-15.938c0,0,8.235,8.993-8.714,25.869Z" transform="translate(-334.908 -208.972)" opacity="0.2"/>
  <path id="Trazado_169" data-name="Trazado 169" d="M583.84,523.115c0,25.425-18.245,45.511-35.412,45.511s-26.756-20.086-26.756-45.511,13.946-45.042,31.084-46.036C579.906,475.505,583.84,497.69,583.84,523.115Z" transform="translate(-352.201 -325.955)" fill="#6c63ff"/>
  <path id="Trazado_170" data-name="Trazado 170" d="M583.84,523.115c0,25.425-18.245,45.511-35.412,45.511s-26.756-20.086-26.756-45.511,13.946-45.042,31.084-46.036C579.906,475.505,583.84,497.69,583.84,523.115Z" transform="translate(-352.201 -325.955)" opacity="0.2"/>
  <ellipse id="Elipse_42" data-name="Elipse 42" cx="5.771" cy="7.345" rx="5.771" ry="7.345" transform="translate(189.407 193.619)" fill="#6c63ff"/>
  <ellipse id="Elipse_43" data-name="Elipse 43" cx="5.771" cy="7.345" rx="5.771" ry="7.345" transform="translate(209.868 187.323)" fill="#6c63ff"/>
  <path id="Trazado_171" data-name="Trazado 171" d="M470.212,331.819a10.471,10.471,0,0,1-1.12,4.737,10.066,10.066,0,0,1-4.517,4.507,105.243,105.243,0,0,0-13.643-12.221,10.281,10.281,0,0,1,2.256-4.034,9.671,9.671,0,0,1,7.172-3.213A10.044,10.044,0,0,1,470.212,331.819Z" transform="translate(-306.402 -225.341)" fill="#fad46f"/>
</svg>
