<svg height="512" viewBox="0 0 64 64" width="512" xmlns="http://www.w3.org/2000/svg"><g id="Money"><path d="m9 23h28v22h-28z" fill="#d8d7da"/><path d="m37 23h24v38h-24z" fill="#5eac24"/><path d="m57 31v22a4 4 0 0 0 -4 4h-8a4 4 0 0 0 -4-4v-22a4 4 0 0 0 4-4h8a4 4 0 0 0 4 4z" fill="#b2fa09"/><circle cx="49" cy="42" fill="#ffcd00" r="4"/><path d="m49 19h-46l23-16z" fill="#ff7956"/><path d="m47 19v4h-10-7-8-6-8-3v-4h8 4 4 10 4 4z" fill="#fee9ab"/><path d="m37 49v4h-34v-4h2z" fill="#a78966"/><path d="m37 45v4h-32v-4h3 8 6 8z" fill="#9cdd05"/><path d="m30 41v4h-8v-4h1 6z" fill="#ff7956"/><path d="m30 23v4h-1-6-1v-4z" fill="#ff7956"/><path d="m23 27h6v14h-6z" fill="#fee9ab"/><circle cx="26" cy="12" fill="#b2fa09" r="3"/><path d="m16 41v4h-8v-4h1 6z" fill="#ff7956"/><path d="m16 23v4h-1-6-1v-4z" fill="#ff7956"/><path d="m9 27h6v14h-6z" fill="#fee9ab"/><path d="m26 16a4 4 0 1 0 -4-4 4 4 0 0 0 4 4zm0-6a2 2 0 1 1 -2 2 2 2 0 0 1 2-2z"/><path d="m61 22h-13v-2h1a1 1 0 0 0 .571-1.821l-23-16a1 1 0 0 0 -1.142 0l-23 16a1 1 0 0 0 .571 1.821h1v3a1 1 0 0 0 1 1h2v3a1 1 0 0 0 1 1v12a1 1 0 0 0 -1 1v3h-2a1 1 0 0 0 -1 1v3h-1a1 1 0 0 0 -1 1v4a1 1 0 0 0 1 1h33v7a1 1 0 0 0 1 1h24a1 1 0 0 0 1-1v-38a1 1 0 0 0 -1-1zm-35-17.782 19.812 13.782h-5.812v-2h-2v2h-2v-2h-2v2h-2v-2h-2v2h-8v-2h-2v2h-2v-2h-2v2h-2v-2h-2v2h-5.812zm-11 19.782v2h-6v-2zm13 4v12h-4v-12zm-5 14h6v2h-6zm7-2v-12a1 1 0 0 0 1-1v-3h5v20h-5v-3a1 1 0 0 0 -1-1zm-1-14h-6v-2h6zm-7 2v12a1 1 0 0 0 -1 1v3h-4v-3a1 1 0 0 0 -1-1v-12a1 1 0 0 0 1-1v-3h4v3a1 1 0 0 0 1 1zm-12 0h4v12h-4zm-1 14h6v2h-6zm-3 4h30v2h-30zm-2 6v-2h32v2zm2-30v-2h40v2zm54 38h-22v-36h22z"/><path d="m41 54a3 3 0 0 1 3 3 1 1 0 0 0 1 1h8a1 1 0 0 0 1-1 3 3 0 0 1 3-3 1 1 0 0 0 1-1v-22a1 1 0 0 0 -1-1 3 3 0 0 1 -3-3 1 1 0 0 0 -1-1h-8a1 1 0 0 0 -1 1 3 3 0 0 1 -3 3 1 1 0 0 0 -1 1v22a1 1 0 0 0 1 1zm1-22.1a5.013 5.013 0 0 0 3.9-3.9h6.2a5.013 5.013 0 0 0 3.9 3.9v20.2a5.013 5.013 0 0 0 -3.9 3.9h-6.2a5.013 5.013 0 0 0 -3.9-3.9z"/><path d="m49 47a5 5 0 1 0 -5-5 5.006 5.006 0 0 0 5 5zm0-8a3 3 0 1 1 -3 3 3 3 0 0 1 3-3z"/></g></svg>