<svg xmlns="http://www.w3.org/2000/svg" width="48.274" height="50.983" viewBox="0 0 48.274 50.983">
  <g id="chart" transform="translate(-13.601)">
    <g id="Grupo_133" data-name="Grupo 133" transform="translate(13.601 14.603)">
      <g id="Grupo_132" data-name="Grupo 132">
        <path id="Trazado_325" data-name="Trazado 325" d="M60.88,181.042H58.7V149.331a2.68,2.68,0,0,0-2.677-2.677H51.137a2.68,2.68,0,0,0-2.677,2.677v31.712H42.915V163.7a2.68,2.68,0,0,0-2.677-2.677H35.356A2.68,2.68,0,0,0,32.68,163.7v17.344H27.134V172.06a2.68,2.68,0,0,0-2.677-2.677H19.575A2.68,2.68,0,0,0,16.9,172.06v8.982H14.6a1,1,0,0,0,0,1.992H60.88a1,1,0,0,0,0-1.992Zm-35.737,0H18.89V172.06a.686.686,0,0,1,.685-.685h4.882a.686.686,0,0,1,.685.685Zm15.781,0H34.671V163.7a.686.686,0,0,1,.685-.685h4.882a.686.686,0,0,1,.685.685Zm15.781,0H50.452V149.331a.686.686,0,0,1,.685-.685h4.882a.686.686,0,0,1,.685.685Z" transform="translate(-13.601 -146.654)" fill="#6c63ff"/>
      </g>
    </g>
    <g id="Grupo_135" data-name="Grupo 135" transform="translate(22.139)">
      <g id="Grupo_134" data-name="Grupo 134">
        <path id="Trazado_326" data-name="Trazado 326" d="M135.9,1.047A.992.992,0,0,0,134.856,0l-.048,0h-6.024a1,1,0,1,0,0,1.992h3.72l-9.844,9.844-3.712-3.712a1,1,0,0,0-1.408,0l-17.9,17.9a1,1,0,0,0,1.408,1.408l17.2-17.2,3.712,3.712a1,1,0,0,0,1.408,0L133.911,3.4V6.767a1,1,0,0,0,1.992,0V1.1C135.9,1.079,135.9,1.063,135.9,1.047Z" transform="translate(-99.346)" fill="#6c63ff"/>
      </g>
    </g>
    <g id="Grupo_137" data-name="Grupo 137" transform="translate(18.783 29.207)">
      <g id="Grupo_136" data-name="Grupo 136">
        <circle id="Elipse_66" data-name="Elipse 66" cx="0.996" cy="0.996" r="0.996" fill="#6c63ff"/>
      </g>
    </g>
  </g>
</svg>
