<svg id="empresa-home" xmlns="http://www.w3.org/2000/svg" width="38.182" height="38.182" viewBox="0 0 38.182 38.182">
  <g id="Grupo_147" data-name="Grupo 147" transform="translate(12.961 12.26)">
    <g id="Grupo_146" data-name="Grupo 146" transform="translate(0 0)">
      <rect id="Rectángulo_172" data-name="Rectángulo 172" width="1" height="1" transform="translate(0.039 0.145)" fill="#681dff"/>
    </g>
  </g>
  <g id="Grupo_149" data-name="Grupo 149" transform="translate(12.961 15.794)">
    <g id="Grupo_148" data-name="Grupo 148" transform="translate(0 0)">
      <rect id="Rectángulo_173" data-name="Rectángulo 173" width="1" height="2" transform="translate(0.039 -0.39)" fill="#681dff"/>
    </g>
  </g>
  <g id="Grupo_151" data-name="Grupo 151" transform="translate(12.961 18.151)">
    <g id="Grupo_150" data-name="Grupo 150" transform="translate(0 0)">
      <rect id="Rectángulo_174" data-name="Rectángulo 174" width="1" height="1" transform="translate(0.039 0.254)" fill="#681dff"/>
    </g>
  </g>
  <g id="Grupo_153" data-name="Grupo 153" transform="translate(12.961 20.508)">
    <g id="Grupo_152" data-name="Grupo 152" transform="translate(0 0)">
      <rect id="Rectángulo_175" data-name="Rectángulo 175" width="1" height="1" transform="translate(0.039 -0.103)" fill="#681dff"/>
    </g>
  </g>
  <g id="Grupo_155" data-name="Grupo 155" transform="translate(16.496 12.26)">
    <g id="Grupo_154" data-name="Grupo 154" transform="translate(0 0)">
      <rect id="Rectángulo_176" data-name="Rectángulo 176" width="2" height="1" transform="translate(-0.496 0.145)" fill="#681dff"/>
    </g>
  </g>
  <g id="Grupo_157" data-name="Grupo 157" transform="translate(16.496 15.794)">
    <g id="Grupo_156" data-name="Grupo 156" transform="translate(0 0)">
      <rect id="Rectángulo_177" data-name="Rectángulo 177" width="2" height="2" transform="translate(-0.496 -0.39)" fill="#681dff"/>
    </g>
  </g>
  <g id="Grupo_159" data-name="Grupo 159" transform="translate(16.496 18.151)">
    <g id="Grupo_158" data-name="Grupo 158" transform="translate(0 0)">
      <rect id="Rectángulo_178" data-name="Rectángulo 178" width="2" height="1" transform="translate(-0.496 0.254)" fill="#681dff"/>
    </g>
  </g>
  <g id="Grupo_161" data-name="Grupo 161" transform="translate(16.496 20.508)">
    <g id="Grupo_160" data-name="Grupo 160" transform="translate(0 0)">
      <rect id="Rectángulo_179" data-name="Rectángulo 179" width="2" height="1" transform="translate(-0.496 -0.103)" fill="#681dff"/>
    </g>
  </g>
  <g id="Grupo_163" data-name="Grupo 163" transform="translate(18.852 12.26)">
    <g id="Grupo_162" data-name="Grupo 162" transform="translate(0 0)">
      <rect id="Rectángulo_180" data-name="Rectángulo 180" width="1" height="1" transform="translate(0.148 0.145)" fill="#681dff"/>
    </g>
  </g>
  <g id="Grupo_165" data-name="Grupo 165" transform="translate(18.852 15.794)">
    <g id="Grupo_164" data-name="Grupo 164" transform="translate(0 0)">
      <rect id="Rectángulo_181" data-name="Rectángulo 181" width="1" height="2" transform="translate(0.148 -0.39)" fill="#681dff"/>
    </g>
  </g>
  <g id="Grupo_167" data-name="Grupo 167" transform="translate(18.852 18.151)">
    <g id="Grupo_166" data-name="Grupo 166" transform="translate(0 0)">
      <rect id="Rectángulo_182" data-name="Rectángulo 182" width="1" height="1" transform="translate(0.148 0.254)" fill="#681dff"/>
    </g>
  </g>
  <g id="Grupo_169" data-name="Grupo 169" transform="translate(18.852 20.508)">
    <g id="Grupo_168" data-name="Grupo 168" transform="translate(0 0)">
      <rect id="Rectángulo_183" data-name="Rectángulo 183" width="1" height="1" transform="translate(0.148 -0.103)" fill="#681dff"/>
    </g>
  </g>
  <g id="Grupo_171" data-name="Grupo 171" transform="translate(21.209 12.26)">
    <g id="Grupo_170" data-name="Grupo 170" transform="translate(0 0)">
      <rect id="Rectángulo_184" data-name="Rectángulo 184" width="1" height="1" transform="translate(-0.209 0.145)" fill="#681dff"/>
    </g>
  </g>
  <g id="Grupo_173" data-name="Grupo 173" transform="translate(16.496 9.903)">
    <g id="Grupo_172" data-name="Grupo 172" transform="translate(0 0)">
      <rect id="Rectángulo_185" data-name="Rectángulo 185" width="2" height="2" transform="translate(-0.496 -0.498)" fill="#681dff"/>
    </g>
  </g>
  <g id="Grupo_175" data-name="Grupo 175" transform="translate(18.852 9.903)">
    <g id="Grupo_174" data-name="Grupo 174" transform="translate(0 0)">
      <rect id="Rectángulo_186" data-name="Rectángulo 186" width="1" height="2" transform="translate(0.148 -0.498)" fill="#681dff"/>
    </g>
  </g>
  <g id="Grupo_177" data-name="Grupo 177" transform="translate(21.209 9.903)">
    <g id="Grupo_176" data-name="Grupo 176" transform="translate(0 0)">
      <rect id="Rectángulo_187" data-name="Rectángulo 187" width="1" height="2" transform="translate(-0.209 -0.498)" fill="#681dff"/>
    </g>
  </g>
  <g id="Grupo_179" data-name="Grupo 179" transform="translate(21.209 15.794)">
    <g id="Grupo_178" data-name="Grupo 178" transform="translate(0 0)">
      <rect id="Rectángulo_188" data-name="Rectángulo 188" width="1" height="2" transform="translate(-0.209 -0.39)" fill="#681dff"/>
    </g>
  </g>
  <g id="Grupo_181" data-name="Grupo 181" transform="translate(21.209 18.151)">
    <g id="Grupo_180" data-name="Grupo 180" transform="translate(0 0)">
      <rect id="Rectángulo_189" data-name="Rectángulo 189" width="1" height="1" transform="translate(-0.209 0.254)" fill="#681dff"/>
    </g>
  </g>
  <g id="Grupo_183" data-name="Grupo 183" transform="translate(21.209 20.508)">
    <g id="Grupo_182" data-name="Grupo 182" transform="translate(0 0)">
      <rect id="Rectángulo_190" data-name="Rectángulo 190" width="1" height="1" transform="translate(-0.209 -0.103)" fill="#681dff"/>
    </g>
  </g>
  <g id="Grupo_185" data-name="Grupo 185" transform="translate(23.565 12.26)">
    <g id="Grupo_184" data-name="Grupo 184" transform="translate(0 0)">
      <rect id="Rectángulo_191" data-name="Rectángulo 191" width="1" height="1" transform="translate(0.435 0.145)" fill="#681dff"/>
    </g>
  </g>
  <g id="Grupo_187" data-name="Grupo 187" transform="translate(23.565 15.794)">
    <g id="Grupo_186" data-name="Grupo 186" transform="translate(0 0)">
      <rect id="Rectángulo_192" data-name="Rectángulo 192" width="1" height="2" transform="translate(0.435 -0.39)" fill="#681dff"/>
    </g>
  </g>
  <g id="Grupo_189" data-name="Grupo 189" transform="translate(23.565 18.151)">
    <g id="Grupo_188" data-name="Grupo 188" transform="translate(0 0)">
      <rect id="Rectángulo_193" data-name="Rectángulo 193" width="1" height="1" transform="translate(0.435 0.254)" fill="#681dff"/>
    </g>
  </g>
  <g id="Grupo_191" data-name="Grupo 191" transform="translate(23.565 20.508)">
    <g id="Grupo_190" data-name="Grupo 190" transform="translate(0 0)">
      <rect id="Rectángulo_194" data-name="Rectángulo 194" width="1" height="1" transform="translate(0.435 -0.103)" fill="#681dff"/>
    </g>
  </g>
  <g id="Grupo_193" data-name="Grupo 193" transform="translate(0 0)">
    <g id="Grupo_192" data-name="Grupo 192" transform="translate(0 0)">
      <path id="Trazado_340" data-name="Trazado 340" d="M37.546,9.545H28V.636A.636.636,0,0,0,27.364,0H10.818a.636.636,0,0,0-.636.636h0V9.545H.636A.636.636,0,0,0,0,10.181H0V33.091a.636.636,0,0,0,.636.636H1.967a3.819,3.819,0,0,0-.058.636v3.182a.636.636,0,0,0,.636.636H35.636a.636.636,0,0,0,.636-.636h0V34.363a3.8,3.8,0,0,0-.058-.636h1.33a.636.636,0,0,0,.636-.636h0V10.182A.636.636,0,0,0,37.546,9.545ZM27.363,27.363a1.273,1.273,0,1,1-1.273-1.273A1.273,1.273,0,0,1,27.363,27.363ZM12.091,26.091a1.273,1.273,0,1,1-1.273,1.273A1.273,1.273,0,0,1,12.091,26.091ZM8.273,36.909H3.182V34.363a2.545,2.545,0,0,1,5.091,0ZM4.455,29.272a1.273,1.273,0,1,1,1.273,1.273A1.273,1.273,0,0,1,4.455,29.272Zm3.915,2.341a3.836,3.836,0,0,0-.8-.593,2.545,2.545,0,1,0-3.683,0,3.843,3.843,0,0,0-1.46,1.434H1.273V10.818h8.909V25.7a2.511,2.511,0,0,0,.068,3.414A3.829,3.829,0,0,0,8.369,31.613Zm6.267,5.3H9.545V32.454a2.545,2.545,0,1,1,5.091,0Zm7.636,0H15.909V32.454a3.182,3.182,0,1,1,6.364,0ZM17.182,26.091A1.909,1.909,0,1,1,19.091,28,1.909,1.909,0,0,1,17.182,26.091Zm5.785,4.176A4.482,4.482,0,0,0,21.141,28.5a3.182,3.182,0,1,0-4.1,0,4.482,4.482,0,0,0-1.826,1.763,3.844,3.844,0,0,0-1.283-1.155,2.527,2.527,0,0,0-2.478-4.2V1.273H26.727V24.908a2.534,2.534,0,0,0-2.478,4.2A3.843,3.843,0,0,0,22.966,30.266Zm5.67,4.1v2.545H23.545V32.454a2.545,2.545,0,1,1,5.091,0ZM35,36.909H29.909V34.363a2.545,2.545,0,0,1,5.091,0Zm-3.818-7.636a1.273,1.273,0,1,1,1.273,1.273A1.273,1.273,0,0,1,31.182,29.272Zm5.727,3.182H35.756a3.843,3.843,0,0,0-1.46-1.434,2.545,2.545,0,1,0-3.683,0,3.834,3.834,0,0,0-.8.593,3.829,3.829,0,0,0-1.88-2.5A2.511,2.511,0,0,0,28,25.7V10.818h8.909V32.454Z" transform="translate(0 0)" fill="#681dff"/>
    </g>
  </g>
  <g id="Grupo_195" data-name="Grupo 195" transform="translate(29.457 14.616)">
    <g id="Grupo_194" data-name="Grupo 194" transform="translate(0 0)">
      <rect id="Rectángulo_195" data-name="Rectángulo 195" width="2" height="11" transform="translate(-0.457 -0.211)" fill="#681dff"/>
    </g>
  </g>
  <g id="Grupo_197" data-name="Grupo 197" transform="translate(34.17 14.616)">
    <g id="Grupo_196" data-name="Grupo 196" transform="translate(0 0)">
      <rect id="Rectángulo_196" data-name="Rectángulo 196" width="1" height="11" transform="translate(-0.17 -0.211)" fill="#681dff"/>
    </g>
  </g>
  <g id="Grupo_199" data-name="Grupo 199" transform="translate(3.535 14.616)">
    <g id="Grupo_198" data-name="Grupo 198" transform="translate(0 0)">
      <rect id="Rectángulo_197" data-name="Rectángulo 197" width="1" height="11" transform="translate(0.465 -0.211)" fill="#681dff"/>
    </g>
  </g>
  <g id="Grupo_201" data-name="Grupo 201" transform="translate(7.07 14.616)">
    <g id="Grupo_200" data-name="Grupo 200" transform="translate(0 0)">
      <rect id="Rectángulo_198" data-name="Rectángulo 198" width="1" height="11" transform="translate(-0.07 -0.211)" fill="#681dff"/>
    </g>
  </g>
  <g id="Grupo_203" data-name="Grupo 203" transform="translate(14.636 2.545)">
    <g id="Grupo_202" data-name="Grupo 202">
      <path id="Trazado_341" data-name="Trazado 341" d="M192.273,32h-7.637a.636.636,0,0,0-.636.636h0v5.091a.636.636,0,0,0,.636.636h7.637a.636.636,0,0,0,.636-.636h0V32.636A.636.636,0,0,0,192.273,32Zm-.637,5.091h-6.364V33.273h6.364Z" transform="translate(-184 -32)" fill="#681dff"/>
    </g>
  </g>
</svg>
